<?xml version="1.0" standalone="no"?>
<!DOCTYPE svg PUBLIC "-//W3C//DTD SVG 1.1//EN" "http://www.w3.org/Graphics/SVG/1.1/DTD/svg11.dtd" >
<svg xmlns="http://www.w3.org/2000/svg" xmlns:xlink="http://www.w3.org/1999/xlink" version="1.1">
<metadata></metadata>
<defs>
<font id="a_empirialregular" horiz-adv-x="514" >
<font-face units-per-em="2048" ascent="1638" descent="-410" />
<missing-glyph horiz-adv-x="409" />
<glyph horiz-adv-x="0" />
<glyph unicode="&#xd;" horiz-adv-x="409" />
<glyph unicode=" "  horiz-adv-x="409" />
<glyph unicode="&#x09;" horiz-adv-x="409" />
<glyph unicode="&#xa0;" horiz-adv-x="409" />
<glyph unicode="!" horiz-adv-x="276" d="M84 0v123h106v-123h-106zM84 1505h106l-32 -1235h-41z" />
<glyph unicode="&#x22;" horiz-adv-x="598" d="M117 897v576h78v-576h-78zM406 897v576h77v-576h-77z" />
<glyph unicode="#" horiz-adv-x="1024" d="M45 555l18 68h240l72 217h-260l16 67h268l125 398h92l-127 -398h168l125 398h92l-124 -398h231l-23 -67h-233l-66 -217h250l-20 -68h-252l-127 -393h-90l127 393h-172l-125 -393h-94l127 393h-238zM399 623h168l64 217h-164z" />
<glyph unicode="$" d="M86 170v334h84v-357q0 -61 14 -81q18 -29 52 -29q70 0 89 20.5t19 89.5v355q0 92 -61 198q-123 211 -125 213q-72 141 -72 236v186q0 88 32 125t118 45v97h47v-101q84 -4 114.5 -42t30.5 -124v-295h-84v316q0 72 -21.5 90t-91.5 18q-61 0 -61 -108v-221q0 -80 41 -158 q6 -8 90 -139q127 -195 127 -377v-291q0 -86 -30.5 -124t-114.5 -46v-156h-47v158q-84 6 -117 44t-33 124z" />
<glyph unicode="%" horiz-adv-x="897" d="M84 741v678q0 100 119 101q61 0 86 -17q33 -23 33 -84v-678q0 -100 -119 -100t-119 100zM125 -14l582 1534h67l-581 -1534h-68zM154 745q0 -59 49 -59t49 39v688q0 61 -49 62q-49 0 -49 -56v-674zM575 86v680q0 100 119 100q61 0 86 -16q33 -23 33 -84v-680 q0 -100 -119 -100t-119 100zM645 92q0 -61 49 -61q51 0 51 43v684q0 63 -51 63q-49 0 -49 -59v-670z" />
<glyph unicode="&#x26;" horiz-adv-x="557" d="M86 156v606q0 135 102 162q-102 25 -102 168v260q0 94 39 131t133 37q135 0 164 -88q8 -29 8 -213h-90v145q0 115 -82 115q-80 0 -80 -115v-303q0 -115 80 -115q75 0 102 84l68 -33q-37 -55 -106 -73q68 -16 88 -51t20 -111v-543q39 92 102 137l27 -49q-74 -37 -119 -139 q27 -86 117 -86v-82q-90 0 -168 84q-57 -98 -153 -98q-150 0 -150 170zM178 160q0 -115 80 -115q51 0 104 78q-23 39 -22 127v536q0 115 -82 115q-80 0 -80 -115v-626z" />
<glyph unicode="'" horiz-adv-x="307" d="M115 897v576h80v-576h-80z" />
<glyph unicode="(" horiz-adv-x="282" d="M84 156v1196q0 96 41 133q37 31 133 35v-41q-55 -4 -70 -33q-12 -20 -12 -82v-1225q0 -57 12 -80q16 -29 70 -32v-41q-96 2 -135 38.5t-39 131.5z" />
<glyph unicode=")" horiz-adv-x="282" d="M25 -14v41q53 4 69 32q12 23 12 80v1225q0 61 -12 82q-14 29 -69 33v41q96 -4 131 -35q43 -35 43 -133v-1196q0 -96 -38 -132t-136 -38z" />
<glyph unicode="*" horiz-adv-x="466" d="M8 1317l21 59l180 -63l-4 192h59l-4 -192l180 63l19 -59l-185 -51l115 -156l-49 -33l-107 156l-106 -156l-49 33l112 156z" />
<glyph unicode="+" horiz-adv-x="1024" d="M184 743v76h287v318h82v-318h289v-76h-289v-313h-82v313h-287z" />
<glyph unicode="," horiz-adv-x="258" d="M63 -178l70 172h-57v117h108v-113l-71 -176h-50z" />
<glyph unicode="-" horiz-adv-x="460" d="M86 723v84h287v-84h-287z" />
<glyph unicode="." horiz-adv-x="256" d="M74 -6v123h108v-123h-108z" />
<glyph unicode="/" d="M-51 -195l512 1715h69l-512 -1715h-69z" />
<glyph unicode="0" d="M86 156v1196q0 94 39 131t133 37t132 -37t38 -131v-1196q0 -96 -37 -133t-133 -37q-94 0 -133 38t-39 132zM176 139q0 -113 82 -112q82 0 82 112v1225q0 115 -82 115t-82 -115v-1225z" />
<glyph unicode="1" d="M76 0v55h149v1375l-94 -21v61q109 20 172 50h14v-1465h134v-55h-375z" />
<glyph unicode="2" d="M84 0v178q0 209 45 324q25 61 88 176q123 219 123 385v301q0 115 -82 115q-80 0 -80 -115v-303h-90v291q0 92 39 130t131 38q94 0 132 -37t38 -131v-289q0 -174 -164 -477q-68 -127 -86 -254q-10 -72 -10 -271h172v261h80v-322h-336z" />
<glyph unicode="3" d="M86 156v331h84v-348q0 -113 88 -112q82 0 82 112v516q0 72 -23.5 94.5t-76.5 22.5h-45q-31 -2 -52 -2v55q18 0 50 -2h43q55 0 79.5 22.5t24.5 94.5v524h-170v-403h-84v444h342v-544q0 -70 -18 -105q-23 -43 -86 -59q66 -16 88 -60q16 -33 16 -106v-475q0 -94 -38 -132 t-132 -38t-133 38t-39 132z" />
<glyph unicode="4" d="M61 442v652l291 426h109l-316 -467v-566h162v574h92v-574h90v-45h-90v-442h-92v442h-246z" />
<glyph unicode="5" d="M86 156v450h90v-467q0 -113 82 -112q82 0 82 112v764q0 68 -18.5 93.5t-85.5 25.5q-83 0 -134 -31v514h291v-63h-223v-377q33 8 88 8q96 0 133 -37t37 -133v-747q0 -94 -38 -132t-132 -38t-133 37.5t-39 132.5z" />
<glyph unicode="6" d="M86 156v1196q0 94 39 131t133 37t132 -37t38 -131v-301h-88v313q0 115 -82 115t-82 -115v-576q70 37 125 37q127 0 127 -166v-503q0 -96 -37 -133t-133 -37q-94 0 -133 37.5t-39 132.5zM176 139q0 -113 82 -112q82 0 82 112v533q0 98 -74 98q-47 0 -90 -33v-598z" />
<glyph unicode="7" d="M82 1219v286h403l-104 -461q-23 -70 -53 -231v-813h-90v774l151 676h-225v-231h-82z" />
<glyph unicode="8" d="M86 156v477q0 139 98 166q-98 25 -98 162v391q0 94 39 131t133 37t132 -37t38 -131v-391q0 -41 -4 -66q-16 -72 -100 -96q66 -18 88 -62q16 -33 16 -104v-477q0 -96 -37 -133t-133 -37q-94 0 -133 37.5t-39 132.5zM176 139q0 -113 82 -112q82 0 82 112v520q0 115 -82 115 t-82 -115v-520zM176 932q0 -57 12 -80q18 -31 70 -31q82 0 82 111v432q0 115 -82 115t-82 -115v-432z" />
<glyph unicode="9" d="M86 156v299h90v-316q0 -113 82 -112q82 0 82 112v580q-66 -39 -129 -39q-125 0 -125 164v508q0 94 39 131t133 37t132 -37t38 -131v-1196q0 -96 -37 -133t-133 -37q-94 0 -133 38t-39 132zM176 831q0 -96 72 -96q43 0 92 33v596q0 115 -82 115t-82 -115v-533z" />
<glyph unicode=":" horiz-adv-x="256" d="M74 -2v121h108v-121h-108zM74 860v123h108v-123h-108z" />
<glyph unicode=";" horiz-adv-x="258" d="M63 -176l70 174h-57v117h108v-113l-71 -178h-50zM76 858v125h108v-125h-108z" />
<glyph unicode="&#x3c;" horiz-adv-x="1024" d="M115 598v55l788 289v-82l-649 -235l649 -236v-82z" />
<glyph unicode="=" horiz-adv-x="1024" d="M143 406v77h738v-77h-738zM143 766v78h738v-78h-738z" />
<glyph unicode="&#x3e;" horiz-adv-x="1024" d="M117 307v82l649 236l-649 235v82l788 -289v-55z" />
<glyph unicode="?" d="M86 1044v308q0 94 39 131t133 37t132 -37t38 -131v-326q0 -96 -8 -143t-53 -152q-51 -119 -64 -160q-18 -61 -20 -149q2 67 2 -152h-64v224q0 90 59.5 247.5t59.5 255.5v367q0 115 -82 115t-82 -115v-320h-90zM199 0v123h106v-123h-106z" />
<glyph unicode="@" horiz-adv-x="1683" d="M125 672q0 358 228.5 602t584.5 244q281 0 467 -166q195 -174 194 -451q0 -322 -198 -491q-119 -102 -246 -103q-156 0 -156 133v31q-80 -166 -235 -166q-258 0 -258 301q0 184 96 332q109 170 283 170q158 0 213 -164l51 125h55l-114 -504q-20 -90 -21 -110 q0 -80 102 -80q55 0 117 31q123 61 189 212q57 131 57 285q0 256 -176 408q-168 141 -428 141q-330 0 -535 -233q-199 -225 -198 -562q0 -299 185 -478t486 -179q281 0 521 174l22 -33q-242 -203 -534 -202q-309 0 -504 167q-248 213 -248 566zM582 602q0 -227 182 -227 q102 0 174 74q66 66 90 169l55 236q-39 186 -202 186q-145 0 -230 -153q-70 -125 -69 -285z" />
<glyph unicode="A" d="M86 0v1337q0 96 38 132t134 36h170v-1505h-88v766h-168v-766h-86zM172 821h168v639h-82q-86 0 -86 -110v-529z" />
<glyph unicode="B" d="M86 0v1505h162q102 0 141 -32.5t39 -133.5v-372q0 -74 -14 -107q-20 -47 -82 -61q61 -12 82 -62q14 -33 14 -108v-461q0 -98 -40 -133t-140 -35h-162zM176 41h60q59 0 81.5 25.5t22.5 85.5v512q0 63 -20.5 87.5t-83.5 24.5h-60v-735zM176 821h60q59 0 81.5 25.5 t22.5 85.5v420q0 63 -20.5 87.5t-83.5 24.5h-60v-643z" />
<glyph unicode="C" horiz-adv-x="495" d="M86 156v1196q0 94 39 131t133 37t132 -37t38 -131v-301h-88v313q0 115 -82 115t-82 -115v-1225q0 -112 81 -112h1q82 0 82 112v348h88v-331q0 -96 -37 -133t-133 -37q-94 0 -133 38t-39 132z" />
<glyph unicode="D" d="M86 0v1505h162q102 0 141 -32.5t39 -133.5v-1171q0 -98 -40 -133t-140 -35h-162zM176 41h60q59 0 81.5 25.5t22.5 85.5v1200q0 63 -20.5 87.5t-83.5 24.5h-60v-1423z" />
<glyph unicode="E" horiz-adv-x="372" d="M86 0v1505h248v-55h-158v-629h146v-55h-146v-709h166v-57h-256z" />
<glyph unicode="F" horiz-adv-x="362" d="M84 0v1505h250v-55h-158v-629h146v-55h-146v-766h-92z" />
<glyph unicode="G" d="M86 156v1196q0 94 39 131t133 37t132 -37t38 -131v-301h-88v313q0 115 -82 115t-82 -115v-1225q0 -112 81 -112h1q82 0 82 112v627h-104v55h192v-665q0 -96 -37 -133t-133 -37q-94 0 -133 38t-39 132z" />
<glyph unicode="H" d="M86 0v1505h88v-684h166v684h88v-1505h-88v766h-166v-766h-88z" />
<glyph unicode="I" horiz-adv-x="260" d="M84 0v1505h92v-1505h-92z" />
<glyph unicode="J" horiz-adv-x="487" d="M59 156v514h88v-531q0 -112 81 -112h1q51 0 68 32q12 23 12 80v1366h92v-1349q0 -94 -38.5 -132t-133.5 -38q-92 0 -131 38.5t-39 131.5z" />
<glyph unicode="K" horiz-adv-x="493" d="M86 0v1505h90v-684h43l121 684h90l-141 -684q139 0 139 -170v-651h-88v664q0 57 -14.5 79.5t-67.5 22.5h-82v-766h-90z" />
<glyph unicode="L" horiz-adv-x="362" d="M86 0v1505h90v-1448h166v-57h-256z" />
<glyph unicode="M" horiz-adv-x="636" d="M86 0v1505h72l161 -688l158 688h74v-1505h-84v1186l-148 -541l-149 541v-1186h-84z" />
<glyph unicode="N" d="M86 0v1505h70l190 -671v671h82v-1505h-82v670q-6 45 -24 96q-33 86 -35 94l-119 379v-1239h-82z" />
<glyph unicode="O" d="M86 156v1196q0 94 39 131t133 37t132 -37t38 -131v-1196q0 -96 -37 -133t-133 -37q-94 0 -133 38t-39 132zM176 139q0 -112 81 -112h1q82 0 82 112v1225q0 115 -82 115t-82 -115v-1225z" />
<glyph unicode="P" horiz-adv-x="491" d="M86 0v1505h162q102 0 141 -33t39 -133v-671q0 -121 -72 -150q-35 -16 -180 -16v-502h-90zM176 543h60q61 0 82.5 23.5t21.5 84.5v701q0 63 -20.5 87.5t-83.5 24.5h-60v-921z" />
<glyph unicode="Q" d="M86 156v1196q0 94 39 131t133 37t132 -37t38 -131v-1196q0 -51 -2 -64l57 -45v-74l-80 66q-39 -53 -145 -53q-94 0 -133 38t-39 132zM176 139q0 -112 81 -112h1q61 0 74 55l-103 82v69l111 -86v1217q0 115 -82 115t-82 -115v-1225z" />
<glyph unicode="R" d="M86 0v1505h162q102 0 141 -32.5t39 -133.5v-372q0 -74 -14 -107q-20 -47 -82 -61q61 -12 82 -62q14 -33 14 -108v-629h-88v664q0 63 -20.5 87.5t-83.5 24.5h-60v-776h-90zM176 821h60q59 0 81.5 25.5t22.5 85.5v420q0 63 -20.5 87.5t-83.5 24.5h-60v-643z" />
<glyph unicode="S" horiz-adv-x="481" d="M68 156v331h90v-348q0 -112 81 -112h1q53 0 69 32q12 23 13 80v281q0 135 -70 270l-90 172q-49 98 -74 178q-20 63 -20 111v201q0 94 38.5 131t133.5 37q94 0 132 -37t38 -131v-297h-88v309q0 59 -13 82q-16 33 -69 33q-82 0 -82 -115v-193q0 -92 41 -172l127 -247 q84 -164 84 -310v-286q0 -96 -37 -133t-133 -37q-94 0 -133 37.5t-39 132.5z" />
<glyph unicode="T" horiz-adv-x="362" d="M6 1450v55h350v-55h-131v-1450h-90v1450h-129z" />
<glyph unicode="U" d="M86 156v1349h90v-1366q0 -112 81 -112h1q82 0 82 112v1366h88v-1349q0 -94 -38 -132t-132 -38t-133 37.5t-39 132.5z" />
<glyph unicode="V" horiz-adv-x="473" d="M66 770v735h90v-733q0 -47 10 -102q14 -92 16 -103l54 -407h4l53 407q2 10 16 103q10 55 10 102v733h89v-735q0 -61 -17 -131q-27 -119 -29 -131l-90 -522h-71l-90 522q-2 12 -29 131q-16 70 -16 131z" />
<glyph unicode="W" horiz-adv-x="729" d="M66 770v735h92v-733q0 -47 10 -102q14 -92 16 -103l54 -407h2l53 407q2 10 16 103q10 55 10 102v733h91v-733q0 -47 10 -102q14 -92 16 -103l53 -407h3l53 407q2 10 16 103q10 55 10 102v733h93v-735q0 -61 -17 -131q-27 -119 -29 -131l-92 -522h-71l-88 559h-5l-90 -559 h-69l-92 522q-2 12 -29 131q-16 70 -16 131z" />
<glyph unicode="X" horiz-adv-x="473" d="M63 1505h93l80 -684h4l79 684h91l-109 -684q68 0 92 -55q14 -35 15 -115v-651h-89v664q0 63 -12 82.5t-69 19.5t-69.5 -19.5t-12.5 -82.5v-664h-90v651q0 170 108 170z" />
<glyph unicode="Y" horiz-adv-x="423" d="M37 670v835h88v-848q0 -57 12 -79q16 -29 70 -29q55 0 72 26q10 18 10 82v848h90v-835q0 -168 -100 -168h-27v-502h-90v502h-25q-100 0 -100 168z" />
<glyph unicode="Z" horiz-adv-x="495" d="M78 0v442q0 145 84 310l127 247q41 80 41 172v293h-164v-409h-88v450h342v-354q0 -102 -80 -258l-104 -203q-41 -82 -55.5 -139t-14.5 -131v-379h164v446h90v-487h-342z" />
<glyph unicode="[" horiz-adv-x="331" d="M84 0v1505h225v-55h-133v-1393h133v-57h-225z" />
<glyph unicode="\" d="M-14 1520h71l508 -1715h-71z" />
<glyph unicode="]" horiz-adv-x="331" d="M23 0v57h135v1393h-135v55h225v-1505h-225z" />
<glyph unicode="^" horiz-adv-x="843" d="M68 1151l297 344h114l297 -344h-139l-215 262l-215 -262h-139z" />
<glyph unicode="_" horiz-adv-x="1024" d="M-12 -162h1048v-76h-1048v76z" />
<glyph unicode="`" horiz-adv-x="430" d="M104 1556h134l81 -249h-86z" />
<glyph unicode="a" d="M86 0v1337q0 96 38 132t134 36h170v-1505h-88v766h-168v-766h-86zM172 821h168v639h-82q-86 0 -86 -110v-529z" />
<glyph unicode="b" d="M86 0v1505h162q102 0 141 -32.5t39 -133.5v-372q0 -74 -14 -107q-20 -47 -82 -61q61 -12 82 -62q14 -33 14 -108v-461q0 -98 -40 -133t-140 -35h-162zM176 41h60q59 0 81.5 25.5t22.5 85.5v512q0 63 -20.5 87.5t-83.5 24.5h-60v-735zM176 821h60q59 0 81.5 25.5 t22.5 85.5v420q0 63 -20.5 87.5t-83.5 24.5h-60v-643z" />
<glyph unicode="c" horiz-adv-x="495" d="M86 156v1196q0 94 39 131t133 37t132 -37t38 -131v-301h-88v313q0 115 -82 115t-82 -115v-1225q0 -112 81 -112h1q82 0 82 112v348h88v-331q0 -96 -37 -133t-133 -37q-94 0 -133 38t-39 132z" />
<glyph unicode="d" d="M86 0v1505h162q102 0 141 -32.5t39 -133.5v-1171q0 -98 -40 -133t-140 -35h-162zM176 41h60q59 0 81.5 25.5t22.5 85.5v1200q0 63 -20.5 87.5t-83.5 24.5h-60v-1423z" />
<glyph unicode="e" horiz-adv-x="372" d="M86 0v1505h248v-55h-158v-629h146v-55h-146v-709h166v-57h-256z" />
<glyph unicode="f" horiz-adv-x="362" d="M84 0v1505h250v-55h-158v-629h146v-55h-146v-766h-92z" />
<glyph unicode="g" d="M86 156v1196q0 94 39 131t133 37t132 -37t38 -131v-301h-88v313q0 115 -82 115t-82 -115v-1225q0 -112 81 -112h1q82 0 82 112v627h-104v55h192v-665q0 -96 -37 -133t-133 -37q-94 0 -133 38t-39 132z" />
<glyph unicode="h" d="M86 0v1505h88v-684h166v684h88v-1505h-88v766h-166v-766h-88z" />
<glyph unicode="i" horiz-adv-x="260" d="M84 0v1505h92v-1505h-92z" />
<glyph unicode="j" horiz-adv-x="487" d="M59 156v514h88v-531q0 -112 81 -112h1q51 0 68 32q12 23 12 80v1366h92v-1349q0 -94 -38.5 -132t-133.5 -38q-92 0 -131 38.5t-39 131.5z" />
<glyph unicode="k" horiz-adv-x="493" d="M86 0v1505h90v-684h43l121 684h90l-141 -684q139 0 139 -170v-651h-88v664q0 57 -14.5 79.5t-67.5 22.5h-82v-766h-90z" />
<glyph unicode="l" horiz-adv-x="362" d="M86 0v1505h90v-1448h166v-57h-256z" />
<glyph unicode="m" horiz-adv-x="636" d="M86 0v1505h72l161 -688l158 688h74v-1505h-84v1186l-148 -541l-149 541v-1186h-84z" />
<glyph unicode="n" d="M86 0v1505h70l190 -671v671h82v-1505h-82v670q-6 45 -24 96q-33 86 -35 94l-119 379v-1239h-82z" />
<glyph unicode="o" d="M86 156v1196q0 94 39 131t133 37t132 -37t38 -131v-1196q0 -96 -37 -133t-133 -37q-94 0 -133 38t-39 132zM176 139q0 -112 81 -112h1q82 0 82 112v1225q0 115 -82 115t-82 -115v-1225z" />
<glyph unicode="p" horiz-adv-x="491" d="M86 0v1505h162q102 0 141 -33t39 -133v-671q0 -121 -72 -150q-35 -16 -180 -16v-502h-90zM176 543h60q61 0 82.5 23.5t21.5 84.5v701q0 63 -20.5 87.5t-83.5 24.5h-60v-921z" />
<glyph unicode="q" d="M86 156v1196q0 94 39 131t133 37t132 -37t38 -131v-1196q0 -51 -2 -64l57 -45v-74l-80 66q-39 -53 -145 -53q-94 0 -133 38t-39 132zM176 139q0 -112 81 -112h1q61 0 74 55l-103 82v69l111 -86v1217q0 115 -82 115t-82 -115v-1225z" />
<glyph unicode="r" d="M86 0v1505h162q102 0 141 -32.5t39 -133.5v-372q0 -74 -14 -107q-20 -47 -82 -61q61 -12 82 -62q14 -33 14 -108v-629h-88v664q0 63 -20.5 87.5t-83.5 24.5h-60v-776h-90zM176 821h60q59 0 81.5 25.5t22.5 85.5v420q0 63 -20.5 87.5t-83.5 24.5h-60v-643z" />
<glyph unicode="s" horiz-adv-x="481" d="M68 156v331h90v-348q0 -112 81 -112h1q53 0 69 32q12 23 13 80v281q0 135 -70 270l-90 172q-49 98 -74 178q-20 63 -20 111v201q0 94 38.5 131t133.5 37q94 0 132 -37t38 -131v-297h-88v309q0 59 -13 82q-16 33 -69 33q-82 0 -82 -115v-193q0 -92 41 -172l127 -247 q84 -164 84 -310v-286q0 -96 -37 -133t-133 -37q-94 0 -133 37.5t-39 132.5z" />
<glyph unicode="t" horiz-adv-x="362" d="M6 1450v55h350v-55h-131v-1450h-90v1450h-129z" />
<glyph unicode="u" d="M86 156v1349h90v-1366q0 -112 81 -112h1q82 0 82 112v1366h88v-1349q0 -94 -38 -132t-132 -38t-133 37.5t-39 132.5z" />
<glyph unicode="v" horiz-adv-x="473" d="M66 770v735h90v-733q0 -47 10 -102q14 -92 16 -103l54 -407h4l53 407q2 10 16 103q10 55 10 102v733h89v-735q0 -61 -17 -131q-27 -119 -29 -131l-90 -522h-71l-90 522q-2 12 -29 131q-16 70 -16 131z" />
<glyph unicode="w" horiz-adv-x="729" d="M66 770v735h92v-733q0 -47 10 -102q14 -92 16 -103l54 -407h2l53 407q2 10 16 103q10 55 10 102v733h91v-733q0 -47 10 -102q14 -92 16 -103l53 -407h3l53 407q2 10 16 103q10 55 10 102v733h93v-735q0 -61 -17 -131q-27 -119 -29 -131l-92 -522h-71l-88 559h-5l-90 -559 h-69l-92 522q-2 12 -29 131q-16 70 -16 131z" />
<glyph unicode="x" horiz-adv-x="473" d="M63 1505h93l80 -684h4l79 684h91l-109 -684q68 0 92 -55q14 -35 15 -115v-651h-89v664q0 63 -12 82.5t-69 19.5t-69.5 -19.5t-12.5 -82.5v-664h-90v651q0 170 108 170z" />
<glyph unicode="y" horiz-adv-x="423" d="M37 670v835h88v-848q0 -57 12 -79q16 -29 70 -29q55 0 72 26q10 18 10 82v848h90v-835q0 -168 -100 -168h-27v-502h-90v502h-25q-100 0 -100 168z" />
<glyph unicode="z" horiz-adv-x="495" d="M78 0v442q0 145 84 310l127 247q41 80 41 172v293h-164v-409h-88v450h342v-354q0 -102 -80 -258l-104 -203q-41 -82 -55.5 -139t-14.5 -131v-379h164v446h90v-487h-342z" />
<glyph unicode="{" horiz-adv-x="811" d="M68 686v74q174 0 235 43q78 53 78 217v219q0 137 22 203q35 100 140 133q59 18 200 18v-73q-186 0 -233 -51.5t-47 -237.5v-76q2 -49 2 -76q0 -164 -29 -237q-31 -80 -151 -119q121 -39 150.5 -116t29.5 -242q0 -25 -2 -74v-72q0 -188 47 -239.5t233 -51.5v-73h-32 q-199 0 -267 79q-63 74 -63 275v215q0 145 -58.5 203.5t-254.5 58.5z" />
<glyph unicode="|" horiz-adv-x="1157" d="M537 -252v1821h81v-1821h-81z" />
<glyph unicode="}" horiz-adv-x="811" d="M68 -72q186 0 233 51.5t47 245.5v60.5v62.5q0 178 30 257t148 118q-119 39 -148.5 118t-29.5 255v65.5v63.5q0 193 -47 244t-233 51v73h32q137 0 203 -30q92 -43 115 -160q12 -66 12 -383q0 -162 80 -217q61 -43 233 -43v-74q-174 0 -235 -43q-78 -53 -78 -219v-215 q0 -137 -20 -201q-35 -100 -140 -133q-66 -20 -202 -20v73z" />
<glyph unicode="~" horiz-adv-x="1925" d="M201 496v88q231 152 434 151q113 0 328 -73.5t329 -73.5q174 0 434 162v-84q-244 -150 -434 -150q-55 0 -153 27l-92 24q-41 8 -125 29q-70 20 -142 43q-80 23 -145 23q-178 0 -434 -166z" />
<glyph unicode="&#xa4;" horiz-adv-x="1024" d="M92 336l160 162q-70 96 -70 202t70 207l-160 160l53 55l162 -164q90 70 203 70t207 -70l162 164l53 -55l-160 -160q68 -96 68 -207q0 -113 -68 -202l160 -162l-53 -55l-162 163q-92 -70 -207 -69q-111 0 -203 69l-162 -163zM260 705q0 -106 74 -181t180 -75 q104 0 178 75.5t74 180.5q0 104 -74 177.5t-178 73.5q-102 0 -178 -74.5t-76 -176.5z" />
<glyph unicode="&#xa6;" horiz-adv-x="1157" d="M537 -252v782h81v-782h-81zM537 786v783h81v-783h-81z" />
<glyph unicode="&#xa7;" d="M86 156v174h90v-191q0 -113 82 -112q82 -1 82 112v223q0 70 -15.5 87.5t-98.5 31t-111.5 44t-28.5 122.5v193q0 135 100 161q-100 27 -100 166v185q0 94 39 131t133 37q131 0 160 -82q10 -31 10 -205h-88v131q0 115 -82 115t-82 -115v-227q0 -66 14.5 -86.5t67.5 -26.5 q102 -12 133 -39q37 -33 37 -131v-190q0 -70 -16 -103q-23 -43 -88 -59q66 -16 88 -60q16 -33 16 -102v-184q0 -96 -37 -133t-133 -37q-94 0 -133 37.5t-39 132.5zM176 635q0 -113 82 -113t82 113v229q0 115 -82 115t-82 -115v-229z" />
<glyph unicode="&#xa9;" horiz-adv-x="1632" d="M68 737q0 309 219 526.5t528 217.5q313 0 531.5 -215t218.5 -529q0 -309 -220.5 -528t-529.5 -219q-227 0 -412.5 127t-275.5 338q-59 141 -59 282zM150 737q0 -274 198.5 -472.5t466.5 -198.5q266 0 475 202q193 186 193 469q0 281 -193.5 473.5t-474.5 192.5 q-272 0 -463 -193q-203 -205 -202 -473zM426 733q0 203 96 330q106 141 303 141q127 0 222 -69q100 -76 112 -199h-96q-47 188 -246 188q-152 0 -227 -125q-59 -102 -60 -266q0 -154 66 -258q78 -125 221 -125q100 0 172 56.5t88 154.5h90q-10 -135 -118 -217 q-100 -76 -240 -76q-188 0 -291 144q-92 127 -92 321z" />
<glyph unicode="&#xab;" horiz-adv-x="610" d="M82 768l240 264v-96l-150 -168l150 -170v-94zM285 768l239 264v-96l-149 -168l149 -170v-94z" />
<glyph unicode="&#xac;" horiz-adv-x="1024" d="M166 803v76h692v-328h-67v252h-625z" />
<glyph unicode="&#xad;" horiz-adv-x="460" d="M86 723v84h287v-84h-287z" />
<glyph unicode="&#xae;" horiz-adv-x="1632" d="M68 737q0 309 219 526.5t528 217.5q317 0 533.5 -213t216.5 -531q0 -154 -54 -284q-84 -205 -278.5 -334t-417.5 -129q-227 0 -412.5 127t-275.5 338q-59 141 -59 282zM150 737q0 -266 199.5 -468.5t465.5 -202.5q272 0 479 202q188 184 189 469q0 281 -193.5 473.5 t-474.5 192.5t-469 -193q-197 -201 -196 -473zM524 309v877h318q360 0 360 -246q0 -90 -60.5 -152.5t-150.5 -74.5l197 -404h-123l-184 389h-250v-389h-107zM631 784h184q127 0 178 21q86 35 86 141q0 156 -262 156h-186v-318z" />
<glyph unicode="&#xb0;" horiz-adv-x="403" d="M66 1298v68q0 53 42 87t95 34q55 0 95 -34t40 -87v-68q0 -51 -43 -85.5t-94 -34.5q-53 0 -94 34.5t-41 85.5zM129 1298q0 -63 72 -63q71 0 71 63v68q0 63 -69 64q-74 0 -74 -64v-68z" />
<glyph unicode="&#xb1;" horiz-adv-x="1024" d="M184 70v75h658v-75h-658zM184 743v76h295v363h68v-363h295v-76h-295v-362h-68v362h-295z" />
<glyph unicode="&#xb5;" horiz-adv-x="1024" d="M92 -207l232 973h73l-102 -432q-16 -70 -16 -113q0 -184 192 -184q117 0 201 104q70 88 100 215l96 410h74l-156 -647q-6 -25 -6 -37q0 -33 37 -39h62l-19 -68q-16 -4 -47 -4q-102 0 -102 109q-98 -117 -258 -117q-164 0 -215 125l-70 -295h-76z" />
<glyph unicode="&#xb6;" horiz-adv-x="1024" d="M45 1153q0 178 139 277q122 86 308 86h487v-74h-150v-1442h-63v1442h-221v-1442h-68v795q-180 8 -297 92q-135 96 -135 266z" />
<glyph unicode="&#xb7;" horiz-adv-x="256" d="M66 754q0 25 19 42t44 17q59 0 59 -59q0 -25 -17 -44.5t-42 -19.5q-23 0 -43 20.5t-20 43.5z" />
<glyph unicode="&#xbb;" horiz-adv-x="610" d="M86 504v94l150 170l-150 168v96l240 -264zM289 504v94l149 170l-149 168v96l239 -264z" />
<glyph unicode="&#x2000;" horiz-adv-x="801" />
<glyph unicode="&#x2001;" horiz-adv-x="1602" />
<glyph unicode="&#x2002;" horiz-adv-x="801" />
<glyph unicode="&#x2003;" horiz-adv-x="1602" />
<glyph unicode="&#x2004;" horiz-adv-x="534" />
<glyph unicode="&#x2005;" horiz-adv-x="400" />
<glyph unicode="&#x2006;" horiz-adv-x="267" />
<glyph unicode="&#x2007;" horiz-adv-x="267" />
<glyph unicode="&#x2008;" horiz-adv-x="200" />
<glyph unicode="&#x2009;" horiz-adv-x="320" />
<glyph unicode="&#x200a;" horiz-adv-x="89" />
<glyph unicode="&#x2010;" horiz-adv-x="460" d="M86 723v84h287v-84h-287z" />
<glyph unicode="&#x2011;" horiz-adv-x="460" d="M86 723v84h287v-84h-287z" />
<glyph unicode="&#x2012;" horiz-adv-x="460" d="M86 723v84h287v-84h-287z" />
<glyph unicode="&#x2013;" horiz-adv-x="1157" d="M-16 735v60h1190v-60h-1190z" />
<glyph unicode="&#x2014;" horiz-adv-x="2310" d="M-16 735v60h2343v-60h-2343z" />
<glyph unicode="&#x2018;" horiz-adv-x="256" d="M72 1233v113l69 178h47l-65 -174h57v-117h-108z" />
<glyph unicode="&#x2019;" horiz-adv-x="256" d="M70 1219l63 174h-55v116h106v-112l-71 -178h-43z" />
<glyph unicode="&#x201a;" horiz-adv-x="256" d="M70 -180l63 174h-55v117h106v-113l-71 -178h-43z" />
<glyph unicode="&#x201c;" horiz-adv-x="438" d="M74 1233v113l67 178h47l-65 -174h57v-117h-106zM252 1233v113l76 178h43l-64 -174h53v-117h-108z" />
<glyph unicode="&#x201d;" horiz-adv-x="438" d="M72 1219l61 174h-53v116h104v-112l-71 -178h-41zM248 1219l69 174h-59v116h109v-112l-72 -178h-47z" />
<glyph unicode="&#x201e;" horiz-adv-x="438" d="M72 -178l61 172h-53v117h104v-113l-71 -176h-41zM248 -178l69 172h-59v117h109v-113l-72 -176h-47z" />
<glyph unicode="&#x2022;" horiz-adv-x="1361" d="M346 780q0 61 29 119q92 186 307 186q131 0 232.5 -88t101.5 -217t-103.5 -219t-234.5 -90t-231.5 90t-100.5 219z" />
<glyph unicode="&#x2026;" horiz-adv-x="905" d="M90 0v123h111v-123h-111zM397 0v123h111v-123h-111zM705 0v123h110v-123h-110z" />
<glyph unicode="&#x202f;" horiz-adv-x="320" />
<glyph unicode="&#x2039;" horiz-adv-x="405" d="M80 768l242 264v-96l-152 -168l152 -170v-94z" />
<glyph unicode="&#x203a;" horiz-adv-x="405" d="M84 504v94l152 170l-152 168v96l242 -264z" />
<glyph unicode="&#x205f;" horiz-adv-x="400" />
<glyph unicode="&#x2122;" horiz-adv-x="1024" d="M37 1438v53h369v-53h-148v-494h-72v494h-149zM485 944v547h101l135 -424l123 424h100v-547h-67v414l-125 -414h-62l-137 420v-420h-68z" />
<glyph unicode="&#x25fc;" horiz-adv-x="1505" d="M0 0v1505h1505v-1505h-1505z" />
</font>
</defs>
</svg>
