<?xml version="1.0" standalone="no"?>
<!DOCTYPE svg PUBLIC "-//W3C//DTD SVG 1.1//EN" "http://www.w3.org/Graphics/SVG/1.1/DTD/svg11.dtd" >
<svg xmlns="http://www.w3.org/2000/svg" xmlns:xlink="http://www.w3.org/1999/xlink" version="1.1">
<metadata></metadata>
<defs>
<font id="luxury_royale_jfregular" horiz-adv-x="823" >
<font-face units-per-em="2048" ascent="1638" descent="-410" />
<missing-glyph horiz-adv-x="409" />
<glyph horiz-adv-x="0" />
<glyph unicode="&#xd;" horiz-adv-x="409" />
<glyph unicode=" "  horiz-adv-x="409" />
<glyph unicode="&#x09;" horiz-adv-x="409" />
<glyph unicode="&#xa0;" horiz-adv-x="409" />
<glyph unicode="!" horiz-adv-x="657" d="M106 43q0 27 34 65.5t65 47.5q23 4 50.5 -11.5t29.5 -38.5q2 -29 -35 -75.5t-70 -46.5q-29 0 -51.5 18t-22.5 41zM276 254q-8 10 0 20l648 883q25 33 51 27l115 -25q27 -6 26 -20q0 -7 -4 -11l-747 -854q-27 -31 -39 -30h-27q-14 0 -23 10z" />
<glyph unicode="&#x22;" horiz-adv-x="880" d="M508 897q35 12 76 57t41 74q-37 0 -37 51q0 27 33.5 66t64.5 47q23 4 51.5 -11t28.5 -38q0 -59 -84 -157.5t-137 -98.5q-18 0 -37 10zM713 897q35 12 75.5 57t40.5 74q-37 0 -36 51q0 27 33.5 66t64.5 47q23 4 51.5 -11t28.5 -38q0 -59 -83 -157.5t-138 -98.5 q-18 0 -37 10z" />
<glyph unicode="#" horiz-adv-x="792" d="M139 625l13 22q18 31 49 31h170l73 133h-170q-31 0 -12 31l12 22q16 31 48 31h170l190 338q16 31 49 31h23q29 0 12 -31l-191 -338h134l190 338q16 31 49 31h23q29 0 12 -31l-190 -338h202q31 0 15 -31l-13 -22q-18 -31 -49 -31h-203l-73 -133h202q31 0 13 -31l-13 -22 q-16 -31 -47 -31h-202l-183 -322q-16 -31 -47 -30h-22q-31 0 -15 30l183 322h-133l-183 -322q-16 -31 -47 -30h-22q-31 0 -15 30l183 322h-170q-31 0 -15 31zM455 678h133l74 133h-134z" />
<glyph unicode="$" horiz-adv-x="1349" d="M123 152q0 113 147 190q135 70 297 70q41 0 92 -9l136 207q-135 199 -138 203q-74 123 -73 211q0 104 82 166q76 59 192 59q109 0 326 -53l149 227q20 31 47 31q31 0 31 -24q0 -4 -2 -7l-160 -243q186 -45 295 -45q25 0 49.5 12t24.5 31q19 12 29 -23q0 -53 -52.5 -136 t-99.5 -83q-117 0 -344 96l-266 -401q137 -188 137 -303q0 -139 -188 -236q-160 -82 -369 -96l-154 -232q-20 -31 -28 -30q-14 0 -34 10t-13 20l151 230q-115 2 -186 43q-78 43 -78 115zM182 176q0 -86 129 -86q70 0 154 19l168 256q-33 4 -60 4q-147 0 -269 -61.5 t-122 -131.5zM557 135q137 47 223 121q99 82 99 172q0 47 -45 123l-109 -162q25 -6 25 -27q0 -16 -11 -16q-4 0 -37 8zM623 1020q0 -47 73.5 -143.5t147.5 -192.5l248 375q-223 96 -318 96q-152 0 -151 -135z" />
<glyph unicode="%" horiz-adv-x="1689" d="M338 719q0 211 240 393q211 160 378 160q141 0 142 -160q0 -55 -37 -129q90 37 215 133q100 76 137 119q27 31 51 27l115 -25q27 -6 27 -20q0 -7 -4 -11l-1084 -1188q-29 -31 -41 -30h-26q-25 0 -25 20q0 6 4 10l784 973q-104 -68 -196 -84q-98 -150 -248 -270 q-160 -127 -266 -127q-78 0 -122 55.5t-44 153.5zM438 606q0 -45 68 -45q96 0 215 111q102 92 192 235q-172 25 -188 174q-113 -113 -200 -257t-87 -218zM791 1118q0 -143 155 -155q80 139 80 211q0 53 -57 53q-72 0 -168 -76q-10 -16 -10 -33zM924 176q0 211 239 393 q211 160 379 160q141 0 141 -160q0 -154 -220 -378t-373 -224q-78 0 -122 55.5t-44 153.5zM1024 63q0 -45 68 -45q154 0 344 254q176 232 176 359q0 53 -58 53q-139 0 -340 -252q-190 -240 -190 -369z" />
<glyph unicode="&#x26;" horiz-adv-x="1849" d="M221 330q0 166 238 303q207 121 506 176q-203 199 -203 381q0 143 115 229q104 78 251 78q139 0 438.5 -72.5t442.5 -72.5q31 0 63.5 15t32.5 41t15 24q22 -3 22 -56q0 -82 -63 -174q-76 -109 -176 -108q-121 0 -427.5 141t-455.5 141q-88 0 -141.5 -49t-53.5 -123 q0 -96 95 -239q80 -123 170 -201q-242 -53 -433 -180q-213 -141 -213 -285q0 -109 92.5 -177.5t229.5 -68.5q188 0 340 70q133 63 176 145q-307 53 -387 54q-29 0 -56.5 -23t-33.5 -23q-14 0 -14 7q0 47 65 116q78 86 172 86q125 0 315.5 -33.5t309.5 -33.5q31 0 52 24.5 t30 24.5q12 0 12 -10q0 -53 -57 -127q-72 -86 -160 -86q-84 0 -184 14q-39 -104 -209 -186q-182 -86 -402 -86q-215 0 -358 88q-156 96 -156 256z" />
<glyph unicode="'" horiz-adv-x="301" d="M334 897q35 12 76 57t41 74q-37 0 -37 51q0 27 33.5 66t64.5 47q23 4 51.5 -11t28.5 -38q0 -59 -84 -157.5t-137 -98.5q-18 0 -37 10z" />
<glyph unicode="(" horiz-adv-x="538" d="M57 186q0 459 305 793q268 295 740 459q23 8 33 8t10 -6q0 -8 -19 -23q-66 -41 -192 -131q-379 -301 -555 -598q-221 -373 -221 -799q0 -18 4 -56t4 -58q0 -23 -12 -23q-10 0 -19 21q-78 166 -78 413z" />
<glyph unicode=")" horiz-adv-x="768" d="M-74 -248q0 10 19 23q66 43 190 133q379 299 543 573q104 174 168 396q68 229 67 426q0 20 -5 58t-5 56q0 25 15 25q8 0 18 -23q78 -165 78 -411q0 -461 -305 -795q-268 -295 -740 -459q-25 -8 -32 -8q-10 0 -11 6z" />
<glyph unicode="*" horiz-adv-x="999" d="M500 881q0 43 63 61q49 8 99 19q-6 6 -80 30q-55 18 -56 66q0 47 43 47q39 0 76 -56.5t43 -56.5q-16 43 -16 103q0 78 49 77q47 0 47 -53q0 -27 -16 -65q-18 -45 -23 -64q12 6 57 47q35 33 68 33q51 0 51 -43q0 -45 -65 -61q-2 0 -105 -13q45 -18 88 -34q57 -27 58 -64 q0 -45 -45 -45q-33 0 -66 39q-23 33 -47 63q10 -82 10 -94q0 -72 -47 -72q-49 0 -49 43q0 23 14 64q20 55 23 66q-94 -76 -129 -76q-45 0 -45 39z" />
<glyph unicode="+" horiz-adv-x="860" d="M184 508l13 35q12 31 43 30h231l90 246q12 31 41 31h47q33 0 21 -31l-90 -246h237q31 1 19 -30l-13 -35q-10 -31 -41 -31h-237l-82 -221q-10 -31 -41 -31h-47q-31 0 -21 31l82 221h-231q-31 0 -21 31z" />
<glyph unicode="," horiz-adv-x="415" d="M10 -139q35 12 76 57t41 74q-37 0 -37 51q0 27 34 65.5t64 47.5q23 4 51.5 -11.5t28.5 -38.5q0 -59 -84 -157.5t-137 -98.5q-18 0 -37 11z" />
<glyph unicode="-" horiz-adv-x="727" d="M162 281l12 32q10 31 41 31h385q31 0 21 -31l-13 -32q-10 -31 -41 -31h-385q-31 0 -20 31z" />
<glyph unicode="." horiz-adv-x="415" d="M90 43q0 27 34 65.5t64 47.5q23 4 50.5 -11.5t29.5 -38.5q2 -29 -34.5 -75.5t-69.5 -46.5q-29 0 -51.5 18t-22.5 41z" />
<glyph unicode="/" horiz-adv-x="667" d="M-23 -162q0 6 5 10l1185 1487q27 33 50 27l96 -25q27 -6 26 -20q0 -6 -4 -10l-1265 -1459q-27 -31 -39 -30h-27q-27 0 -27 20z" />
<glyph unicode="0" horiz-adv-x="1183" d="M170 328q0 242 201 473q172 197 432 334q244 127 414 127q98 0 149 -54q45 -43 45 -106q0 -184 -155.5 -453.5t-370.5 -455.5q-242 -207 -449 -207q-123 0 -194.5 89t-71.5 253zM319 152q0 -90 130 -91q182 0 399 197q195 176 337 426t142 410q0 47 -31.5 76.5 t-76.5 29.5q-162 0 -388 -213q-199 -188 -355.5 -445t-156.5 -390z" />
<glyph unicode="1" horiz-adv-x="819" d="M-8 31q0 25 18 47q72 84 307 315q252 240 752 725q-51 -37 -291 -196q-254 -166 -258 -166q-29 0 -28 37q0 16 63 57q41 27 82 51q522 340 551 340q26 0 26 -12q0 -18 -411 -537q-242 -305 -486 -608q-63 -86 -200 -86q-10 0 -37 2h-43q-45 0 -45 31z" />
<glyph unicode="2" horiz-adv-x="1071" d="M-47 8q0 6 2 15q63 166 369 350q334 201 469 311q287 236 286 440q0 88 -96 88q-88 0 -166 -98q-88 -111 -88 -272q0 -20 -42 -32.5t-77 -12.5q-98 0 -98 39q0 188 164 315q152 119 338 119q127 0 213 -56q100 -65 100 -190q0 -172 -246 -338q-137 -90 -516 -264 q-340 -158 -444 -246l4 -8q160 106 332 106q145 0 370 -120q53 -29 56.5 -33t3.5 -6q0 -43 -79 -89t-126 -46q-59 0 -223 86t-232 86q-61 0 -127 -41q-41 -27 -90 -76q-39 -43 -43 -43q-14 0 -14 16z" />
<glyph unicode="3" horiz-adv-x="1142" d="M68 217q0 49 28 109q33 68 72 67q41 0 136 -29.5t95 -50.5q0 4 -69.5 -63.5t-69.5 -130.5q0 -47 55 -47q162 0 331 164.5t169 324.5q0 63 -53 64q-18 0 -56 -9.5t-59 -9.5q-55 0 -55 41q0 55 63 55q20 0 59.5 -12t59.5 -12q135 0 276.5 147.5t141.5 282.5q0 102 -125 102 q-106 0 -175 -77.5t-69 -186.5q0 -23 -49 -35q-39 -10 -69 -10q-96 0 -97 39q0 160 164 250q133 72 307 72q109 0 197 -56q102 -66 102 -170q0 -156 -174 -274q-156 -109 -319 -109l-8 -10q158 -49 157 -221q0 -186 -246 -322q-213 -119 -415 -118q-127 0 -209 53 q-96 61 -96 182z" />
<glyph unicode="4" horiz-adv-x="1177" d="M94 397q0 35 86 74q61 29 115 41q135 115 352 360q106 121 189 238q25 45 82 125q33 37 186 37q164 0 164 -29q0 -37 -414 -383q-221 -184 -446 -340h16q63 2 143 -33q66 -33 133 -65q66 66 256 235q227 203 344 287q16 12 27 12q21 0 21 -18q0 -12 -7 -20 q-27 -29 -77 -91q-143 -172 -256 -327q-29 -43 -90 -133l14 -2q119 0 209 69q20 -6 12 -51q-92 -82 -221 -82q-29 0 -62 2q-51 -84 -157 -250q-43 -66 -199 -65q-131 0 -131 57q0 47 264 326q-104 51 -129 61q-70 27 -139 27q-33 0 -66 -4q-147 -96 -184 -97q-35 0 -35 39z " />
<glyph unicode="5" horiz-adv-x="1153" d="M43 217q0 49 29 109q33 68 71 67q41 0 136.5 -29.5t95.5 -50.5q0 4 -76 -68.5t-76 -135.5q0 -47 56 -48q162 0 380 206t218 360q0 88 -136 88q-123 0 -241 -37q-72 -76 -97 -76q-23 0 -22 39q0 53 102 90q414 518 435 518q2 0 18 -8q92 -57 246 -57q98 0 192 14 q139 25 135 25q15 -1 15 -21q0 -59 -63.5 -142t-123.5 -83q-176 0 -325.5 45t-151.5 45q-12 0 -22 -12q-133 -168 -242 -293q51 16 147 16q147 0 251 -73.5t104 -188.5q0 -231 -252 -393q-219 -141 -447 -141q-356 0 -356 235z" />
<glyph unicode="6" horiz-adv-x="1118" d="M111 240q0 190 178 440q170 242 409 412q258 180 461 180q260 -1 260 -234q0 -66 -34.5 -121t-65.5 -55q-41 0 -133 29q-98 31 -99 49q0 -2 83 78t83 139q0 47 -55 47q-182 0 -414 -239q-158 -164 -252 -324l9 -8q29 23 102 49q106 41 213 41q109 0 170 -55 q55 -49 55 -127q0 -193 -217 -371q-229 -184 -512 -184q-242 0 -241 254zM264 139q0 -96 123 -96q164 0 332 221q147 196 147 309q0 33 -25.5 55.5t-62.5 22.5q-115 0 -243 -110q-106 -92 -193 -226q-78 -123 -78 -176z" />
<glyph unicode="7" horiz-adv-x="1011" d="M164 51q0 16 16 37q41 55 230 240q201 199 348 323q414 352 530 445l-12 4q-53 -31 -107 -60q-111 -51 -206 -51q-78 0 -167 48t-124 48q-76 0 -144 -110q-23 -39 -47 -81t-47 -42q-39 0 -39 39q0 37 78 123q88 96 199 162q137 82 266 81q72 0 172 -51t150 -51 q51 0 131 47q43 27 86 53q18 10 34 -4q14 -12 -2 -26q-100 -82 -315 -297q-238 -236 -356 -375q-158 -190 -377 -508q-39 -57 -178 -57q-119 0 -119 63z" />
<glyph unicode="8" horiz-adv-x="1144" d="M61 260q0 164 201 285q158 96 334 121q-55 100 -55 186q0 164 172 291t370 127q133 0 214 -65t81 -161q0 -125 -159 -239q-137 -98 -293 -129q96 -117 96 -238q0 -209 -164 -334q-154 -119 -381 -118q-203 0 -315 84q-100 76 -101 190zM215 238q0 -199 258 -199 q152 0 248 57q104 60 104 162q0 61 -69 168q-68 98 -135 195q-164 -31 -285 -145t-121 -238zM750 997q0 -90 147 -284q143 45 259 164t116 223q0 125 -201 125q-139 0 -230 -73t-91 -155z" />
<glyph unicode="9" horiz-adv-x="1118" d="M61 217q0 63 35 119.5t66 56.5q41 0 136 -29.5t95 -50.5q0 2 -81 -78.5t-81 -136.5q0 -47 56 -47q182 0 411 240q156 160 250 321l-8 9q-29 -23 -102 -50q-106 -39 -213 -39q-109 0 -170 56q-55 49 -56 127q0 193 217 368q229 184 512 185q242 0 242 -254 q0 -188 -178 -441q-170 -242 -410 -409q-258 -182 -460 -182q-125 0 -193 65.5t-68 169.5zM614 680q0 -31 26 -54.5t62 -23.5q115 0 244 113q106 90 193 225q78 121 78 176q0 94 -123 94q-164 0 -332 -221q-147 -197 -148 -309z" />
<glyph unicode=":" horiz-adv-x="598" d="M90 43q0 27 34 65.5t64 47.5q23 4 50.5 -11.5t29.5 -38.5q2 -29 -34.5 -75.5t-69.5 -46.5q-29 0 -51.5 18t-22.5 41zM340 371q0 27 34 66.5t64 45.5q23 4 50.5 -10t29.5 -39q2 -29 -35 -76t-69 -47q-29 0 -51.5 18.5t-22.5 41.5z" />
<glyph unicode=";" horiz-adv-x="557" d="M10 -139q35 12 76 57t41 74q-37 0 -37 51q0 27 34 65.5t64 47.5q23 4 51.5 -11.5t28.5 -38.5q0 -59 -84 -157.5t-137 -98.5q-18 0 -37 11zM340 371q0 27 34 66.5t64 45.5q23 4 50.5 -10t29.5 -39q2 -29 -35 -76t-69 -47q-29 0 -51.5 18.5t-22.5 41.5z" />
<glyph unicode="&#x3c;" horiz-adv-x="1054" d="M203 481l26 72l895 414l-63 -172l-606 -279l403 -283l-59 -157z" />
<glyph unicode="=" horiz-adv-x="829" d="M170 348l12 33q10 31 41 31h488q30 0 20 -31l-12 -33q-10 -31 -41 -31h-488q-31 0 -20 31zM238 551l12 33q10 31 41 30h487q31 1 21 -30l-13 -33q-12 -31 -43 -31h-487q-31 0 -18 31z" />
<glyph unicode="&#x3e;" horiz-adv-x="1101" d="M166 92l61 170l607 279l-402 284l57 158l598 -408l-26 -69z" />
<glyph unicode="?" horiz-adv-x="1169" d="M276 43q0 31 39 72t70 41q25 0 47.5 -15.5t22.5 -38.5q0 -31 -37 -74.5t-68 -43.5q-27 0 -50.5 17t-23.5 42zM440 236q0 8 9 22q51 96 227 254q227 205 280 264q137 154 138 281q0 96 -117 96q-109 0 -236 -96q-133 -102 -133 -207q0 -51 39 -60.5t39 -21.5 q0 -23 -23.5 -63.5t-44.5 -40.5q-47 0 -89 38.5t-42 85.5q0 168 207 306q188 125 367 125q86 0 149 -33q82 -41 82 -119q0 -117 -225 -315q-164 -131 -326 -263q-102 -88 -239 -245q-18 -23 -45 -23q-16 0 -17 15z" />
<glyph unicode="@" horiz-adv-x="1961" d="M123 406q0 362 250 632q289 311 786 312q371 0 586 -205q201 -193 201 -496q0 -281 -166 -481q-156 -188 -346 -188v-3q-178 0 -226 181q-123 -174 -290 -174q-135 0 -222 90q-94 96 -94 264q0 190 139 369q158 205 383 204q162 0 222 -149l34 127h226l-183 -639 q-16 -57 -16 -94q0 -78 61 -78q115 0 234 135q147 168 147 434t-183 434t-478 168q-350 0 -592 -239q-248 -246 -248 -619q0 -326 204 -519.5t554 -193.5q336 0 633 211l61 -69q-147 -113 -280 -166q-188 -76 -426 -76q-442 0 -706.5 226.5t-264.5 601.5zM846 250 q0 -170 102 -170q109 0 214.5 196.5t105.5 376.5q0 160 -109 160q-96 0 -201 -174q-113 -184 -112 -389z" />
<glyph unicode="A" horiz-adv-x="2441" d="M31 55q0 195 506 344q442 131 1114 191q80 92 329 428q184 246 304 348q170 143 350 143h2q119 0 119 -110q0 -127 -150 -355q-47 -70 -317 -428q157 -10 157 -60q0 -36 -61.5 -124t-93.5 -88q-35 0 -95 4q-70 4 -94 4q-159 -248 -159 -401q0 -148 124 -148h2q2 -4 3 -10 q0 -10 -10.5 -26.5t-20.5 -16.5q-78 0 -123 53.5t-45 135.5q0 162 156 413q-256 -2 -519 -12q-471 -449 -1140 -449q-154 0 -246 42t-92 122zM102 49q0 -49 101 -72q66 -14 137 -14q615 0 1057 373q-553 -29 -889 -92q-406 -78 -406 -195zM1741 596q242 18 469 20 q199 270 233 324q107 164 107 248q0 31 -24.5 52.5t-55.5 21.5q-129 0 -254 -99q-94 -74 -227 -245q-123 -160 -248 -322z" />
<glyph unicode="B" horiz-adv-x="2832" d="M53 471q0 279 584 537q467 207 1184 356q618 129 932 129q309 0 493 -68q209 -77 209 -229q0 -160 -375 -313q-305 -125 -782 -219q381 -123 381 -322q0 -195 -309 -307q-268 -98 -637 -98q-440 0 -510 141q-33 -43 -45 -60q-31 -38 -81 -38h-7q-78 4 -78 65q0 18 10 33 q113 152 410 491q-68 -6 -125 -6q-227 0 -228 123q0 117 262 117q123 0 293 -15q78 82 181 213q31 39 55 39q27 0 26 -22q0 -16 -16 -39q-27 -39 -139 -203q197 -23 360 -59q477 86 834 205q438 145 438 270q0 131 -348 131q-242 0 -952 -149q-762 -160 -1303 -340 q-655 -219 -655 -371q0 -35 -29 -33q-33 0 -33 41zM1151 682q0 -47 154 -47q86 0 196 14q12 12 51 53q-158 27 -297 27q-104 0 -104 -47zM1272 143q2 -6 2 -12q0 -41 76 -78q111 -53 344 -53q315 0 508 94q165 83 165 185q0 84 -124 174q-115 82 -308 151q-104 -12 -348 -31 q-104 -141 -315 -430z" />
<glyph unicode="C" horiz-adv-x="1591" d="M20 43q0 299 273 659q254 338 620 576q379 246 672 246q266 0 266 -242q0 -141 -112 -375q-100 -205 -231.5 -377t-186.5 -172q-39 0 -88 49.5t-49 90.5q0 31 76 104q57 51 116 105q141 131 248 268q156 205 156 332q0 143 -168 143q-240 0 -570 -250 q-309 -233 -536 -557q-238 -338 -238 -577q0 -309 291 -310q188 0 422 129q184 102 360 262q12 4 23 5q37 0 37 -36q0 -9 -2 -20q-193 -180 -432 -303q-272 -139 -502 -139q-211 0 -328 98t-117 291z" />
<glyph unicode="D" horiz-adv-x="3037" d="M53 471q0 279 584 537q467 207 1184 356q618 129 932 129q315 0 497 -80q205 -90 205 -268q0 -313 -391 -604q-328 -244 -834 -412q-461 -152 -768 -152q-289 0 -288 132q14 16 38 16q25 0 33 -12q0 -53 152 -54q270 0 731 148q508 162 842 385q403 270 403 545 q0 190 -414 190q-383 0 -981 -135q-324 -436 -923 -1174q-31 -38 -81 -38h-7q-78 4 -78 65q0 18 10 33q387 453 897 1052q10 12 21 23q-641 -158 -1171.5 -372t-530.5 -318q0 -33 -27 -33q-35 0 -35 41z" />
<glyph unicode="E" horiz-adv-x="1556" d="M72 178q0 188 268 344q236 137 578 201q-158 158 -203 342q-147 -39 -305 -80q-20 -4 -29 -4q-16 0 -30.5 25.5t-14.5 37.5q0 14 24 23q131 33 345 88v21q0 135 116.5 232t280.5 97q139 0 536 -92l183 51q174 49 270 49q92 0 153.5 -39.5t61.5 -105.5 q0 -74 -101.5 -197.5t-170.5 -123.5q-129 0 -326 71q-45 16 -342 142l-590 -175q47 -199 221 -348q139 20 263 21q80 0 128 -32t48 -77q0 -96 -158 -96q-145 0 -283 102q-266 -66 -454 -198q-215 -150 -215 -314q0 -123 105.5 -201.5t258.5 -78.5q250 0 434 104 q168 96 168 195q12 18 29 18q25 0 37 -33q0 -129 -207 -241q-217 -119 -496 -119q-246 0 -407 100q-176 109 -176 291zM758 1171q225 62 489 136q-174 61 -268 61q-100 0 -160.5 -57.5t-60.5 -139.5zM1081 676q102 -61 209 -62q66 0 66 39q0 41 -84 41q-86 0 -191 -18z M1778 1382q211 -43 325 -43q35 0 72 17.5t37 44.5q0 51 -121 51q-88 0 -168 -25q-29 -8 -145 -45z" />
<glyph unicode="F" horiz-adv-x="2484" d="M57 104q0 178 295 287q252 92 559 92q100 0 180 -18.5t80 -40.5q0 -49 -61 -131t-94 -82q-14 0 -88 4t-129 4q-238 0 -441.5 -50t-203.5 -110q0 -37 94 -61q88 -25 213 -25q260 0 626 103q350 98 697 262h-453q-31 0 -31 31v32q0 31 31 31h641q330 176 522 354 q211 193 211 351q0 190 -413 190q-434 0 -879 -104q-408 -96 -680 -241.5t-272 -268.5q0 -31 -25 -33h-6q-31 0 -31 41q0 348 531 582q483 215 1091 215q344 0 547 -93q219 -98 219 -280q0 -162 -168 -354q-158 -182 -436 -359h205q31 0 31 -31v-32q0 -31 -31 -31h-363 q-360 -201 -765 -320q-432 -129 -803 -129q-186 0 -293 55.5t-107 159.5z" />
<glyph unicode="G" horiz-adv-x="1632" d="M-299 -373q0 201 354 310q255 79 514 79h6q63 0 144 -12q112 -16 112 -46q0 -40 -66.5 -127t-102.5 -87q-35 0 -108 4t-108 4q-158 0 -368 -33q-301 -45 -301 -127q0 -86 250 -86q426 0 795.5 231.5t561.5 612.5q-285 -217 -585 -217q-184 0 -295 84q-123 94 -123 272 q0 244 237 498q213 227 533 383q313 154 547 154q254 0 254 -219q0 -152 -162 -437q-152 -270 -207 -270q-39 0 -83 49t-44 90q0 16 111 125q139 139 205 223q110 140 110 234q0 131 -160 131q-203 0 -464 -145.5t-437 -354.5q-192 -226 -192 -432q0 -127 73.5 -204.5 t198.5 -77.5q88 0 213 57q78 37 191 108q92 57 100 58q41 0 69.5 -35t28.5 -76q0 -102 -133 -272q-219 -283 -575 -465q-365 -186 -715 -186q-137 0 -238 36q-141 53 -141 166z" />
<glyph unicode="H" horiz-adv-x="2656" d="M385 743q344 125 758 125q436 0 774 -127h14v2h6l265 338q36 41 59 41q5 0 10 -2q10 -5 10 -16q0 -17 -24 -49q-49 -66 -211 -287q281 78 772 213q172 197 397 496q18 39 47 26q31 -12 9 -45q-78 -111 -314 -444q4 0 113 26q86 18 135 19q61 0 92 -33q80 -84 80 -143 q0 -29 -33 -41q-78 0 -634 -156q-113 -160 -371 -508q6 -45 6 -90q0 -240 -115 -416q-99 -155 -183 -155h-1q-92 0 -92 168q0 127 94 280q53 86 209 297q-37 137 -156 270l-268 -57q-154 -229 -320 -479q-17 -28 -41 -28q-13 0 -28 7q-20 10 -21 33q0 18 17 43 q119 174 284 395q-461 -106 -630 -139q-369 -74 -568 -74q-497 0 -497 212q0 167 356 298zM115 465q0 -23 44 -40t107 -17q209 0 537 67q577 118 997 227q-193 53 -317 72q-162 25 -387 25q-322 0 -647 -107q-334 -111 -334 -227zM2066 -373q0 -20 9 -28q41 0 135 176 q76 139 76 276q0 22 -2 43q-59 -80 -156 -270q-61 -123 -62 -197zM2177 551q29 -25 71 -100.5t54 -126.5q126 151 278 333q-176 -47 -403 -106z" />
<glyph unicode="I" horiz-adv-x="1687" d="M35 104q0 178 293 287q252 92 557 92q100 0 180 -18.5t80 -40.5q0 -49 -61.5 -131t-94.5 -82q-14 0 -88 4t-129 4q-246 0 -446 -45q-213 -49 -213 -115q0 -86 256 -86q453 0 944 398q-37 94 -37 215q0 340 189.5 629.5t410.5 289.5h2q176 0 176 -198q0 -223 -166 -504 q-170 -289 -442 -514q4 -4 43 -41q31 -29 31 -45q0 -35 -31 -35q-23 0 -48.5 23.5t-51.5 50.5q-457 -350 -963 -351q-184 0 -287.5 58.5t-103.5 154.5zM1374 561q0 -70 10 -131q258 225 430.5 479.5t172.5 401.5q0 116 -101 116h-2q-152 0 -328 -288q-182 -299 -182 -578z " />
<glyph unicode="J" horiz-adv-x="2205" d="M-260 -360q0 150 285 249q254 90 548 91q100 0 180.5 -18.5t80.5 -41.5q0 -41 -51.5 -107.5t-84.5 -66.5q-14 0 -87.5 4t-129.5 4q-238 0 -441.5 -50t-203.5 -110q0 -86 307 -86q332 0 871 259q553 264 936 618q438 406 438 752q0 190 -414 190q-434 0 -878 -104 q-408 -96 -680.5 -241.5t-272.5 -268.5q0 -193 406 -353q371 -145 723 -145q25 -8 24 -33q0 -25 -24 -28q-395 0 -721 104q-469 152 -469 463q0 346 530 582q485 215 1092 215q344 0 547 -93q219 -98 219 -280q0 -432 -426 -856q-375 -371 -946 -623q-543 -241 -956 -241h-3 q-186 0 -292.5 55t-106.5 160z" />
<glyph unicode="K" horiz-adv-x="1945" d="M70 358q0 84 102 134q90 43 223 43q170 0 244 -25q291 371 598 772q29 27 104 27h11q43 0 43 -21q0 -10 -6 -20q-18 -18 -295 -348q-295 -348 -367 -443q78 -35 180 -84q188 37 541 207q393 190 653 395q319 252 320 445q0 71 169 71h5h4q127 0 127 -69q0 -199 -363 -465 q-293 -217 -741 -422q-395 -182 -604 -225q362 -205 459 -205q94 0 157 63q10 0 23.5 -10t13.5 -22q0 -8 -6 -17q-33 -47 -104 -92q-125 -80 -275 -80q-162 0 -631 299q-43 -10 -114 -16q-121 -164 -187 -236q-22 -24 -40 -24q-13 0 -25 12q-13 13 -13 30q0 20 17 46 q31 39 125 158q-61 -8 -115 -9q-233 0 -233 131zM143 362q0 -39 47 -53q39 -10 136 -10q74 0 155 12q13 12 29 35q-111 82 -236 82q-57 0 -94 -19.5t-37 -46.5z" />
<glyph unicode="L" horiz-adv-x="1990" d="M23 88q0 57 71 98q82 49 236 50q80 0 159 -11q82 72 502 504q350 365 580 537q333 247 581 247h2q179 0 179 -141q0 -188 -185 -438q-166 -221 -396 -391t-370 -170q-31 0 -30 35q0 20 16 30q137 0 356 168q213 160 369 373q170 229 170 385q0 84 -111 84 q-168 0 -454 -231q-166 -135 -545 -508q-369 -365 -547 -506q96 -20 424 -133q244 -84 400 -84q119 0 163 8q94 18 162 86q10 10 31 10q31 0 31 -18q0 -6 -7 -15q-74 -109 -198 -211q-152 -127 -254 -127q-127 0 -410 160q-338 190 -467 232q-193 -127 -323 -127 q-59 0 -97 27.5t-38 76.5zM133 96q0 -43 60 -43q75 0 190 84q-70 12 -139 13q-111 0 -111 -54z" />
<glyph unicode="M" horiz-adv-x="2836" d="M39 172q0 150 285 250q254 90 548 90q100 0 180.5 -19t80.5 -40q0 -41 -51.5 -107.5t-84.5 -66.5q-14 0 -87.5 4t-129.5 4q-238 0 -441.5 -50.5t-203.5 -109.5q0 -86 307 -86q332 0 721 225q360 211 611 516q258 315 258 566q-29 51 -95 51q-51 0 -79 -29q0 47 47 88 q61 53 166 53q163 0 163 -202q0 -145 -94 -418q-37 -106 -176 -451q-94 -233 -94 -288q0 -47 41 -48q51 0 532 619q340 436 375 477q199 229 299 230q96 0 96 -109q0 -78 -43 -154l-567 -974q-78 -133 -78 -209q0 -117 131 -117q14 -6 15 -23q0 -16 -13 -22q-145 0 -229 61 q-92 66 -92 193q0 94 80 225l422 694q51 86 51 119q0 14 -11 14q-29 0 -258 -305q-313 -420 -440 -569q-258 -305 -358 -305q-66 0 -121 58.5t-55 123.5q0 80 129 375q94 211 186 424q-225 -395 -655 -670q-442 -285 -869 -285q-399 0 -399 197z" />
<glyph unicode="N" horiz-adv-x="2494" d="M47 172q0 150 285 250q254 90 549 90q100 0 180 -19t80 -40q0 -41 -51.5 -107.5t-83.5 -66.5q-14 0 -88 4t-130 4q-238 0 -441.5 -50.5t-203.5 -109.5q0 -86 308 -86q332 0 720 225q360 211 611 516q258 315 258 566q-25 51 -94 51q-51 0 -80 -29q0 47 47 88 q61 53 166 53q190 0 190 -204q0 -184 -145.5 -627.5t-145.5 -527.5q0 -47 41 -48q49 0 496 506q514 582 575 639q150 139 211 183q135 92 269 92q70 0 109.5 -30t39.5 -73q0 -92 -61 -92q-23 0 -23 23q0 8 5 24.5t5 26.5q0 43 -84 43q-154 0 -395 -229q-61 -57 -373 -412 q-344 -393 -514 -569q-276 -287 -348 -287q-66 0 -120 58.5t-54 123.5q0 84 74 338q70 231 139 461q-225 -395 -655 -670q-442 -285 -869 -285q-399 0 -399 197z" />
<glyph unicode="O" horiz-adv-x="1875" d="M18 293q0 262 228 551q211 268 527.5 453.5t574.5 185.5h10q57 0 57 -37q0 -35 -33 -35h-43q-211 0 -498.5 -168t-486.5 -399q-217 -256 -217 -471q0 -305 434 -305q270 0 646 196q360 190 616 451q274 281 274 495q0 106 -59 167t-164 61q-197 0 -569 -267 q-141 -100 -443 -364q-283 -248 -348 -320q-37 -41 -110 -41q-55 0 -103 23q-59 27 -59 74q0 53 358 315q266 197 506 350q463 299 721 299q166 0 261 -84.5t95 -244.5q0 -287 -288 -609q-264 -297 -657.5 -504.5t-704.5 -207.5q-244 0 -381 110q-143 115 -144 326z" />
<glyph unicode="P" horiz-adv-x="2883" d="M53 471q0 279 584 537q467 207 1184 356q618 129 932 129q309 0 493 -68q209 -77 209 -229q0 -223 -453 -453q-350 -176 -917 -329q-440 -121 -725 -160q-106 -141 -182 -236q-31 -38 -81 -38h-7q-78 4 -78 65q0 18 10 33q20 27 131 153q-68 -4 -125 -4q-227 0 -227 129 q14 16 39 17q25 0 32 -13q0 -61 154 -61q86 0 197 12l538 615q31 39 60 39q20 0 20 -23q0 -16 -14 -39q-184 -268 -402 -561q240 41 656 164q530 156 862 313q430 203 430 373q0 131 -348 131q-242 0 -952 -149q-762 -160 -1303 -340q-655 -219 -655 -371q0 -35 -29 -33 q-33 0 -33 41z" />
<glyph unicode="Q" horiz-adv-x="2101" d="M121 492q0 303 371 548q315 211 829 338q463 115 864 115q252 0 424 -45q287 -76 287 -260q0 -227 -367 -488q-297 -211 -770 -403q-406 -166 -688 -223q362 -205 459 -205q94 0 158 63q10 0 23 -10t13 -22q0 -8 -6 -17q-33 -47 -104 -92q-125 -80 -275 -80 q-164 0 -622 293q-166 -39 -309 -39q-285 0 -285 137q0 84 102 134q92 43 224 43q205 0 512 -142q264 51 684 215q481 188 790 389q379 246 379 445q0 139 -340 139q-307 0 -838 -117q-586 -129 -972 -305q-465 -213 -465 -426q-12 -23 -35 -22q-27 0 -43 37zM197 106 q0 -63 174 -63q139 0 237 25q-133 104 -280 104q-131 0 -131 -66z" />
<glyph unicode="R" horiz-adv-x="2861" d="M59 518q74 201 461 413t989 378q672 184 1235 184q252 0 424 -45q287 -76 287 -260q0 -209 -451 -440q-334 -172 -829 -318q-139 -41 -428 -100q362 -205 459 -205q94 0 157 63q10 0 23.5 -10t13.5 -22q0 -8 -6 -17q-33 -47 -104 -92q-125 -80 -275 -80q-162 0 -631 299 q-43 -10 -114 -16q-86 -125 -187 -236q-22 -24 -40 -24q-13 0 -25 12q-13 13 -13 30q0 20 17 46q31 39 125 158q-61 -8 -115 -9q-233 0 -233 131q0 84 102 134q90 43 223 43q152 0 256 -35q104 129 226 286q24 24 46 24q8 0 15 -3q18 -6 2 -35q-51 -76 -213 -295 q78 -35 180 -84q285 55 555 135q414 121 766 301q416 213 416 357q0 139 -340 139q-483 0 -1444 -256q-569 -152 -962 -299q-444 -166 -490 -266q-36 -79 -64 -79q-4 0 -7 1q-19 8 -19 35q0 22 12 57zM872 362q0 -39 48 -53q39 -10 135 -10q74 0 155 12q13 12 29 35 q-111 82 -235 82q-57 0 -94.5 -19.5t-37.5 -46.5z" />
<glyph unicode="S" horiz-adv-x="1607" d="M78 -100q0 166 217 278q195 102 432 103q72 0 156 -15q78 -12 95 -23.5t17 -31.5q0 -25 -16 -25q-14 0 -29 4q-94 27 -213 27q-215 0 -394 -88t-179 -192q0 -125 188 -125q270 0 539 143q291 156 291 350q0 102 -178 346q-197 270 -234 416q-94 -29 -117.5 -34t-31.5 -5 q-16 0 -31 25.5t-15 38.5q0 14 25 22q37 10 156 41v21q0 135 116.5 232t280.5 97q139 0 537 -92l182 51q174 49 270 49q92 0 153.5 -39.5t61.5 -105.5q0 -74 -101.5 -197.5t-170.5 -123.5q-129 0 -326 71q-45 16 -342 142l-592 -177q37 -100 191 -280q203 -238 252 -309 q125 -184 125 -334q0 -223 -320 -367q-272 -123 -586 -123q-176 0 -288 60q-121 61 -121 170zM809 1171q225 62 489 136q-174 61 -268 61q-100 0 -160.5 -57.5t-60.5 -139.5zM1829 1382q211 -43 325 -43q35 0 72 17.5t37 44.5q0 51 -121 51q-88 0 -168 -25q-29 -8 -145 -45z " />
<glyph unicode="T" horiz-adv-x="2189" d="M43 721q0 348 530 582q483 215 1092 215q360 0 559 -101q207 -102 207 -295q0 -227 -158 -508q-168 -301 -434 -493q-307 -221 -659 -221q-166 0 -265 49q-108 54 -108 153q0 141 168 226.5t432 85.5q100 0 180 -19t80 -41q0 -49 -61.5 -131t-94.5 -82q-14 0 -87.5 4.5 t-129.5 4.5q-391 0 -391 -91q0 -39 94 -63q82 -23 191 -23q305 0 590 203q250 178 415 455q156 266 156 483q0 100 -111.5 156.5t-302.5 56.5q-434 0 -878 -104q-408 -96 -680.5 -241.5t-272.5 -268.5q0 -39 -32 -33q-29 4 -29 41z" />
<glyph unicode="U" horiz-adv-x="1523" d="M109 233q0 360 636 1055q150 166 191 180q29 12 82 13q66 0 133 -17q84 -20 84 -47q0 -8 -164 -168q-221 -215 -375 -381q-440 -477 -440 -643q0 -180 186 -180q190 0 471 160q180 315 537 796q416 563 604 564q66 -1 66 -60q0 -213 -244 -532q-227 -297 -567 -563 q-86 -158 -115 -217q-37 -88 -119 -259q-16 -31 -41 -30q-59 0 -125 41q-71 44 -71 97q0 19 28 77q-276 -143 -467 -144q-137 0 -213.5 70t-76.5 188zM1384 549q285 246 474 500q198 263 198 413q0 35 -39 35q-104 0 -633 -948z" />
<glyph unicode="V" horiz-adv-x="1779" d="M82 635q0 137 252 362q231 207 536 369q317 168 498 168q84 0 117 -47q22 -35 22 -116v-7q0 -74 -39 -209q264 141 441 242q10 6 20 6q33 0 33 -57q0 -43 -61 -74q-131 -70 -467 -242q-98 -238 -199 -475q-145 -354 -145 -403q0 -47 43 -48q49 0 557 506q319 319 641 639 q137 129 217 183q139 92 262 92q149 -1 149 -103q0 -92 -61 -92q-25 0 -25 23q0 8 6.5 24.5t6.5 26.5q0 43 -86 43q-152 0 -394 -229q-348 -352 -696 -705q-567 -563 -668 -563q-66 0 -120 58.5t-54 123.5q0 55 252 733q-420 -211 -479 -239q-295 -135 -412 -136 q-147 0 -147 146zM156 641q0 -82 92 -82q90 0 356 129q47 23 555 285q96 270 96 327q0 74 -86 74q-115 0 -370 -151q-238 -141 -434 -314q-209 -184 -209 -268z" />
<glyph unicode="W" horiz-adv-x="1998" d="M51 233q0 211 166 502q141 246 350 473q195 209 312 260q25 12 82 13q51 0 114 -23q78 -27 78 -65q0 -10 -43 -43q-238 -176 -510 -465q-401 -424 -401 -660q0 -80 59 -135q51 -45 102 -45q150 0 453 188q-4 4 -4 48q0 205 195 512q182 291 428 505q260 229 428 230 q65 0 65 -78q0 -223 -260 -553q-240 -303 -598 -573q-23 -68 -23 -140q0 -139 130 -139q209 0 530 252q303 238 528 553q242 338 242 559q0 51 -53 51q-39 0 -39 21q0 14 23.5 30.5t52.5 16.5q92 0 92 -125q0 -225 -244 -578q-238 -338 -553 -585q-342 -268 -586 -269 q-147 0 -239 60q-78 49 -101 129q-301 -184 -485 -185q-137 0 -214 70t-77 188zM1100 422q317 262 534 541q228 294 228 462q0 35 -39 35q-117 0 -400 -440q-246 -385 -323 -598z" />
<glyph unicode="X" horiz-adv-x="1753" d="M70 635q0 180 374 463q285 215 541 329q231 106 354 107q160 0 158 -170l-2 -430q283 276 465 407q244 174 407 175q125 -1 125 -95q0 -92 -61 -92q-23 0 -23 23q0 8 5.5 25.5t5.5 25.5q0 43 -84 43q-123 0 -361 -191q-166 -131 -479 -438l-4 -598v-9q0 -202 86 -202h2 q23 -10 23 -26q0 -10 -11 -17q-180 2 -251.5 73t-71.5 255q0 147 2 305q-334 -324 -492 -448q-248 -201 -379 -201q-49 0 -92 40t-43 89q0 14 8 14l45 -16q45 -17 80 -17q147 0 396 203q141 115 477 451l8 564q0 97 -121 97q-100 0 -351 -143.5t-446 -308.5 q-217 -186 -217 -281q0 -82 93 -82q121 0 350 98q150 66 370 185q182 98 191 98q33 0 33 -57q0 -41 -62 -74q-287 -150 -436 -211q-268 -109 -465 -109q-147 0 -147 146z" />
<glyph unicode="Y" horiz-adv-x="1966" d="M379 125q258 80 520 80q63 0 143 -12q113 -16 113 -48q0 -39 -66.5 -126t-103.5 -87q-35 0 -107.5 4.5t-107.5 4.5q-158 0 -369 -33q-301 -45 -301 -127q0 -86 250 -86q305 0 588 122t496 341q-154 57 -154 250q0 59 147 456q-422 -211 -479 -239q-295 -135 -411 -136 q-147 0 -148 146q0 137 250 362q231 207 537 369q319 168 499 168q139 0 140 -148q0 -90 -41 -231q262 141 440 242q10 6 18 6q35 0 35 -57q0 -43 -61 -74q-133 -70 -467 -242q-57 -147 -113 -295q-86 -231 -86 -301q0 -141 90 -141q49 0 461 409q272 274 543 547 q287 266 506 267q122 -1 122 -95q0 -92 -59 -92q-25 0 -25 23q0 8 5.5 24.5t5.5 26.5q0 43 -84 43q-68 0 -209 -90q-117 -74 -186 -139l-664 -672q-434 -432 -770 -645q-455 -287 -873 -287q-378 0 -378 202t354 310zM463 641q0 -82 92 -82q88 0 354 129q49 23 557 285 q97 270 97 327q0 74 -86 74q-117 0 -371 -151q-240 -141 -434 -314q-209 -184 -209 -268z" />
<glyph unicode="Z" horiz-adv-x="1972" d="M23 88q0 57 71 98q82 49 236 50q80 0 159 -11q102 84 418 371t510 448q-49 -2 -100 -2q-319 0 -586 50q-236 45 -336 106q-43 27 -43 137q0 74 20.5 132.5t53.5 58.5q8 0 18 -6q436 -258 1229 -279q295 211 443 211q66 0 102.5 -35t36.5 -84q0 -246 -701 -284 q-129 -111 -481 -437q-299 -276 -467 -409q96 -20 424 -133q244 -84 400 -84q119 0 163 8q94 18 162 86q10 10 31 10q31 0 31 -18q0 -6 -7 -15q-74 -109 -198 -211q-152 -127 -254 -127q-127 0 -410 160q-338 190 -467 232q-193 -127 -323 -127q-59 0 -97 27.5t-38 76.5z M133 96q0 -43 60 -43q75 0 190 84q-70 12 -139 13q-111 0 -111 -54zM1798 1241q400 2 400 88q0 57 -84 57q-111 0 -316 -145z" />
<glyph unicode="[" horiz-adv-x="776" d="M-6 -307l629 1726h356l-23 -59h-116q-51 0 -77 -20.5t-44 -71.5l-516 -1420q-10 -27 -10 -47q0 -49 59 -49h121l-23 -59h-356z" />
<glyph unicode="\" horiz-adv-x="1024" d="M12 1432h80l541 -1620h-80z" />
<glyph unicode="]" horiz-adv-x="741" d="M49 -307l23 59h121q84 0 118 96l516 1420q12 35 13 53q0 39 -68 39h-117l23 59h356l-628 -1726h-357z" />
<glyph unicode="^" horiz-adv-x="1361" d="M74 1069l528 567h164l528 -567h-139l-473 451l-475 -451h-133z" />
<glyph unicode="_" horiz-adv-x="1003" d="M-86 -88h1004v-119h-1004v119z" />
<glyph unicode="`" horiz-adv-x="538" d="M106 1522q0 61 62 61q39 0 80 -41l203 -205h-74l-234 125q-37 20 -37 60z" />
<glyph unicode="a" d="M-74 125q0 51 33 104q53 86 170 147.5t229 61.5q109 0 109 -78q84 78 119 78q25 0 63.5 -25.5t36.5 -47.5q-2 -18 -47 -70l-70 -74q-73 -83 -73 -122q0 -24 26 -23q55 0 176 102q63 55 160 131q18 12 27 13q10 0 10 -13v-6q-6 -25 -49 -65q-131 -123 -193 -164 q-145 -98 -221 -99q-115 0 -115 123q0 27 2 41q-39 -53 -106 -96q-84 -53 -164 -53q-49 0 -86 39t-37 96zM160 168q0 -33 33 -33q66 0 149 103q43 53 90 90q4 25 -43 24q-84 0 -174 -86q-55 -53 -55 -98z" />
<glyph unicode="b" horiz-adv-x="641" d="M-35 117q0 182 248 493q127 160 301 285q182 131 297 131q39 0 70.5 -20.5t31.5 -57.5q0 -102 -340 -373q-238 -188 -387 -286q-36 -68 -36 -122q0 -62 40 -63q61 0 148 97q-18 23 -19 49q0 51 45.5 97t94.5 46q35 -4 35 -49q0 -61 -52 -119q25 -6 50 -6q49 0 194 98 q18 12 23 -4q3 -7 3 -13q0 -21 -28 -44q-117 -98 -223 -98q-41 0 -62 10q-43 -59 -114 -115q-89 -69 -188 -69h-3q-129 0 -129 133zM281 430q170 113 295.5 221.5t199.5 198.5q50 63 50 74q0 1 -1 2q-3 3 -9 3q-40 0 -206 -149q-166 -150 -245 -243q-51 -61 -84 -107z" />
<glyph unicode="c" horiz-adv-x="630" d="M-43 150q0 115 123 208q117 92 239 93q57 0 103.5 -22.5t46.5 -53.5q0 -49 -37 -105.5t-76 -56.5q-77 0 -77 40q0 15 53 66q29 27 28 35q0 10 -12 11q-29 0 -74 -37q-51 -41 -80.5 -96.5t-29.5 -98.5q0 -74 76 -74q135 0 277 127t169 136q8 2 14.5 -5.5t4.5 -17.5 q0 -18 -23 -37q-68 -61 -193 -170q-156 -119 -315 -119q-217 0 -217 177z" />
<glyph unicode="d" horiz-adv-x="743" d="M-82 125q0 119 148 219q137 96 274 96q61 0 61 -41q82 143 277 369q203 233 270 246q35 6 68 6q66 0 92 -10q14 -3 18 -17q0 -14 -22 -32q-207 -168 -430 -431q-260 -303 -260 -424q0 -35 32 -34q47 0 172 106q57 49 162 133q16 12 27 11q10 -2 8 -17q-6 -31 -49 -67 q-176 -152 -188 -160q-131 -100 -216 -101q-78 0 -77 107v25q-143 -119 -244 -119q-49 0 -86 39t-37 96zM193 125q35 0 106 57q19 74 76 170h-6q-92 -10 -179 -104q-38 -42 -38 -78q0 -45 41 -45z" />
<glyph unicode="e" horiz-adv-x="589" d="M-43 150q0 106 111.5 203.5t250.5 97.5q49 0 93.5 -27t44.5 -64q0 -59 -80 -135q-88 -82 -178 -82q-25 0 -35 2v-12q0 -67 67 -67h2q106 0 240 118q145 129 172 138h4q19 0 13 -29q-4 -18 -21 -31q-68 -61 -192 -170q-80 -61 -125 -82q-76 -37 -168 -37q-86 0 -140 43 q-59 47 -59 134zM178 201h8q66 0 125 61q49 55 49 92q0 10 -12 11q-27 0 -76 -39t-79 -97z" />
<glyph unicode="f" horiz-adv-x="514" d="M-432 -465q0 127 162 356q8 12 254 324q2 -8 2 41q0 63 52 118.5t116 55.5q207 244 411 430q166 152 195 154q69 5 69 6h-2q80 0 105 -10q16 -5 16 -17q0 -14 -26 -32q-283 -199 -654 -625q-12 -145 -53 -256q4 -2 12 -2q47 0 113 57q211 188 233 189q10 0 11 -27 q0 -29 -222 -207q-117 -92 -176 -92h-2q-66 -178 -196 -350q-168 -215 -314 -215q-106 0 -106 102zM-238 -446q84 0 224 204q123 180 137 254q-47 18 -74 54q-321 -405 -321 -480q0 -33 34 -32z" />
<glyph unicode="g" horiz-adv-x="813" d="M-432 -496q0 98 239 263q211 143 373 196q63 86 193 256q-63 -55 -99 -80q-215 -147 -290 -147q-86 0 -86 94q0 131 161 250q156 113 303 113q74 0 113 -27q6 -2 6 -12t-8 -11q-25 -2 -78 -14q-115 -43 -215 -143q-71 -71 -71 -104q0 -11 12 -11q29 0 108 49 q72 45 127 92q70 70 183 174q12 12 32 13q25 0 39 -43q6 -31 15.5 -60.5t9.5 -32.5q-2 -27 -184 -272q88 16 208 115q176 141 189 149q35 23 35 -6q0 -31 -41 -63q-182 -143 -193 -154q-121 -84 -219 -106q-10 -2 -33 -9q-47 -61 -143 -188q-127 -168 -299 -285 q-158 -106 -246 -106q-41 0 -91 40t-50 70zM-311 -489q0 -29 26 -29q55 0 254 211q39 41 148 176q-104 -45 -183 -96q-96 -63 -170.5 -141t-74.5 -121z" />
<glyph unicode="h" horiz-adv-x="714" d="M-156 27q0 51 189 290q184 233 352 404q279 283 342 293q35 6 68 6q86 0 110 -10q17 -5 17 -17q0 -14 -27 -32q-289 -203 -619 -582q-37 -43 -88 -100q214 157 278 157h1q27 0 56.5 -38t29.5 -68q0 -18 -57 -84q-35 -39 -68 -76q-39 -47 -39 -70q0 -27 31 -26 q45 0 170 104q57 49 162 133q16 12 26 11q10 -2 8 -17q-6 -31 -49 -67q-80 -70 -162 -142q-129 -98 -215 -98q-59 0 -95 38t-36 93q0 68 50 117q6 6 6 10t-4 4t-31 -14q-72 -41 -125 -84q-113 -94 -158 -162q-123 0 -123 27z" />
<glyph unicode="i" horiz-adv-x="444" d="M4 270q121 160 164 170q27 6 68 6q84 0 110 -12q8 -4 8 -8q0 -8 -73 -84q-43 -43 -88 -86q-104 -117 -105 -162q0 -29 25 -28q74 0 206 112q57 49 162 133q16 12 27 11q10 -3 8 -17q-6 -31 -49 -67q-55 -49 -111 -99q-86 -74 -155 -110q-98 -51 -181 -52q-108 0 -108 84 q0 86 92 209zM268 606q0 37 47 92.5t91 65.5q7 1 15 1q27 1 57 -15q41 -22 40 -61q0 -35 -53 -99q-57 -68 -92 -68q-41 0 -73 25.5t-32 58.5z" />
<glyph unicode="j" horiz-adv-x="415" d="M-831 -496q0 106 239 269q215 145 373 190q2 0 176 244q145 205 182 235q14 12 33 13q25 0 51.5 -42t26.5 -71q0 -27 -199 -295q78 14 248 146q163 126 172 126q14 0 14 -14q0 -33 -116 -127q-82 -66 -152 -110q-102 -68 -186 -86q-10 -2 -33 -9q-47 -63 -144.5 -190 t-242.5 -242q-182 -147 -301 -147q-47 0 -94 31.5t-47 78.5zM-717 -475q0 -41 39 -41q86 0 395 385q-131 -57 -254 -139q-180 -121 -180 -205zM250 606q0 37 47 92.5t90 65.5q7 1 15 1q27 0 57 -15q43 -23 43 -59t-54 -101q-57 -68 -94 -68q-41 0 -72.5 25.5t-31.5 58.5z " />
<glyph unicode="k" horiz-adv-x="624" d="M-156 27q0 51 189 290q184 233 352 404q279 283 342 293q35 6 68 6q86 0 110 -10q17 -5 17 -17q0 -14 -27 -32q-289 -203 -619 -582q-43 -47 -131 -154q98 86 201 154q111 72 146 72q27 0 53 -30t26 -59q0 -27 -18 -26q-96 0 -311 -111q-8 -12 -9 -43q0 -108 95 -108h2 q45 0 170 104q57 49 162 133q16 12 26 11q10 -2 8 -17q-6 -31 -49 -67q-82 -70 -162 -142q-129 -98 -215 -98q-57 0 -94 37t-37 94q0 27 8 53q-90 -61 -147 -137q-14 -18 -33 -45q-123 0 -123 27z" />
<glyph unicode="l" horiz-adv-x="548" d="M-31 143q0 162 244 467q127 160 301 285q184 131 297 131q102 0 102 -78q0 -72 -135 -200q-57 -53 -240.5 -202t-351.5 -257q-47 -88 -47 -137q0 -61 70 -62q70 0 158 57q92 70 219 164q18 14 26 6q6 -6 6 -18q0 -18 -16 -35q-100 -100 -225 -188q-131 -92 -244 -92 q-72 0 -118 44t-46 115zM281 430q174 115 292 219q255 222 255 269q0 5 -3 8q-8 8 -34 -6q-102 -53 -271 -218q-154 -152 -239 -272z" />
<glyph unicode="m" horiz-adv-x="1114" d="M-23 55q0 29 109 154q82 94 82 119q-20 0 -137 -82q-8 -4 -11 -4q-14 0 -18 16q-2 4 -2 10q0 12 12 25q33 31 119 82q102 61 145 61q27 0 55.5 -24.5t28.5 -46.5q0 -16 -20 -50q160 121 225 121q27 0 55.5 -24.5t28.5 -46.5q0 -16 -31 -66l-6 -12q40 35 138 93 q94 56 117 56h1q27 -2 55.5 -39t28.5 -67q0 -18 -57 -84q-35 -39 -68 -76q-39 -47 -39 -70q0 -27 31 -26q45 0 170 104q57 49 162 133q16 12 27 11q10 -3 8 -17q-6 -31 -49 -67q-80 -70 -160 -142q-129 -98 -215 -98q-57 0 -95 37t-38 94q0 68 49 117q6 6 6 10t-4 4 q-6 0 -31 -14q-51 -31 -147 -113q-55 -55 -146 -139q-23 0 -56.5 20.5t-33.5 40.5q0 18 111 148q80 92 80 125q-23 0 -103 -60q-86 -66 -157 -139q-55 -59 -129 -135q-23 0 -57 20.5t-34 40.5z" />
<glyph unicode="n" horiz-adv-x="847" d="M-23 55q0 29 109 154q82 94 82 119q-20 0 -137 -82q-8 -4 -11 -4q-14 0 -18 16q-2 4 -2 10q0 12 12 25q33 31 119 82q102 61 145 61q27 0 55.5 -24.5t28.5 -46.5q0 -16 -30 -66q-6 -10 -6 -16q0 -8 6 -9q4 0 16 11q36 31 136 92q96 59 119 59h1q27 -2 55.5 -39t28.5 -67 q0 -18 -57 -84q-35 -39 -68 -76q-39 -47 -39 -70q0 -27 31 -26q45 0 170 104q57 49 162 133q16 12 26 11q11 -3 9 -17q-6 -31 -50 -67q-82 -70 -161 -142q-129 -98 -215 -98q-57 0 -94.5 37t-37.5 94q0 68 50 117q6 6 6 10t-4 4q-6 0 -31 -14q-125 -74 -297 -246 q-6 -6 -18 -6q-23 0 -57 20.5t-34 40.5z" />
<glyph unicode="o" horiz-adv-x="638" d="M-55 119q0 139 129 237q119 90 256 90q41 0 74.5 -11t33.5 -21t-8 -13q-135 -31 -231 -163q-37 -51 -37 -97q0 -43 35 -43q51 0 141 103q-18 23 -19 49q0 29 19 61q47 82 113 82q38 0 38 -47q0 -70 -49 -123q12 -4 39 -4q49 0 109 35q49 31 96 63q19 12 23 -4q2 -6 2 -11 q0 -23 -27 -46q-113 -96 -219 -96q-47 0 -64 8q-43 -57 -114 -115q-104 -82 -197 -82q-59 0 -101 39t-42 109z" />
<glyph unicode="p" horiz-adv-x="716" d="M-592 -487q0 86 349 508.5t423 422.5q10 0 33 3.5t33 3.5q81 0 81 -29q0 -3 -1 -6q59 30 103 30h3q47 0 81 -28.5t34 -77.5q0 -125 -152 -252q16 -12 21 -12q55 0 176 102q63 55 160 131q18 12 26 13q10 0 10 -13v-6q-6 -25 -49 -65q-135 -127 -192 -164 q-137 -90 -223 -90q-31 0 -48 26q-78 -37 -143 -37q-143 0 -143 123q-293 -319 -500 -665l-8 -2q-23 0 -48.5 30.5t-25.5 53.5zM66 84q0 -16 20 -16q51 0 178 117.5t127 170.5q0 31 -31 31q-39 0 -166.5 -130t-127.5 -173z" />
<glyph unicode="q" d="M-74 125q0 51 33 104q53 86 170 147.5t229 61.5q109 0 109 -78q84 78 119 78q25 0 63.5 -25.5t36.5 -47.5q-2 -18 -47 -70l-70 -74q-73 -83 -73 -122q0 -24 26 -23q55 0 176 102q63 55 160 131q18 12 27 13q10 0 10 -13v-6q-6 -25 -49 -65q-135 -127 -193 -164 q-139 -90 -237 -90q0 -59 -119 -283q-129 -244 -205 -244q-37 0 -65.5 28t-28.5 79q0 102 82 260q68 135 151 233l-4 2q-75 -69 -175 -69h-3q-49 0 -86 39t-37 96zM80 -449q0 -35 22 -34q43 0 152 221q97 193 111 252q-45 -49 -166 -213q-119 -176 -119 -226zM160 168 q0 -33 33 -33q66 0 149 103q43 53 90 90q4 25 -43 24q-84 0 -174 -86q-55 -53 -55 -98z" />
<glyph unicode="r" horiz-adv-x="569" d="M-2 270q0 14 6 17q18 12 39 32q-45 23 -45 60q0 43 76 100q68 53 104 53q35 0 35 -67q0 -20 -13 -46l-14 -26q0 -12 23 -12q18 0 43 12q8 4 39 27q23 16 33 16q27 0 55.5 -38t28.5 -68q0 -18 -58 -84l-78 -86q-49 -55 -49 -78q0 -27 31 -27q43 0 190 123q57 49 162 133 q16 12 27 11q10 -3 8 -17q-6 -31 -49 -67q-86 -76 -172 -150q-138 -108 -223 -108h-2q-59 0 -95.5 37.5t-36.5 93.5q0 88 136 223q-49 -31 -97 -31h-4q-27 -23 -65 -55q-4 -4 -13 -4q-23 0 -22 26z" />
<glyph unicode="s" horiz-adv-x="575" d="M-82 84q0 68 68 68q43 0 43 -50q0 -6 -3 -24.5t-3 -22.5q0 -10 16 -10q37 0 77 59.5t40 126.5q0 53 -29 86q-4 4 -6 5q-53 -45 -117 -101q-4 -4 -8 -4q-29 0 -29 35q0 4 4 8q47 37 125 105v2q0 63 63.5 114t131.5 51q33 0 33 -36q0 -18 -19.5 -54t-19.5 -63 q0 -25 41 -89.5t41 -121.5q0 -39 -15 -68q27 16 99 78q57 49 161 133q16 12 27 11q10 -3 8 -17q-6 -31 -49 -67q-72 -63 -143 -127q-113 -90 -195 -109q-61 -33 -137 -33q-90 0 -147.5 31t-57.5 84z" />
<glyph unicode="t" horiz-adv-x="483" d="M-86 74q0 115 211 348h-31q-18 -2 -22 -2q-41 0 -41 45q0 41 20 53q14 8 160 8q125 143 164 154q16 4 65 4q66 0 92 -12q10 -2 11 -15q0 -10 -8 -16q-47 -41 -119 -121l28 2h12q47 0 48 -30q0 -27 -27 -39q-12 -6 -135 -17q-182 -186 -248 -293q-18 -31 -18 -47 q0 -35 43 -35q100 0 239 117q57 49 162 133q14 10 25 11q12 -1 10 -17q-4 -31 -49 -67q-55 -49 -111 -99q-86 -76 -155 -112q-98 -53 -226 -54q-100 0 -100 101z" />
<glyph unicode="u" horiz-adv-x="796" d="M-80 66q0 92 78 200.5t166 157.5q25 14 86 16q17 1 31 1q35 0 53 -7q18 -6 10 -14q-59 -57 -141 -160q-106 -129 -107 -170q0 -14 15 -14q31 0 112 61q70 57 129 119q45 49 92 100q76 80 95.5 84t64.5 4q84 0 109 -10q16 -6 10 -14q-174 -190 -231 -287q-16 -29 -17 -43 q0 -14 14 -14q61 0 183 102q57 49 162 133q16 12 26 11q10 -3 8 -17q-6 -31 -49 -67q-55 -49 -110 -99q-86 -74 -156 -110q-82 -43 -168 -43t-86 75q0 35 16 80q-63 -63 -161 -114q-80 -41 -150 -41q-84 0 -84 80z" />
<glyph unicode="v" horiz-adv-x="641" d="M-88 80q0 164 199 332q23 18 30 20q29 6 72 6q59 0 84 -10q16 -6 10 -14q-57 -53 -129 -146q-90 -115 -90 -162q0 -33 29 -32q59 0 159 76v8q0 106 89 202q80 88 145 89q39 0 39 -37q0 -111 -203 -273q12 -31 43 -30q41 0 103 49q74 63 184 153q14 10 24 11q13 0 13 -23 q0 -20 -150 -152q-109 -94 -196 -94q-55 0 -78 43q-149 -110 -271 -110h-2q-104 0 -104 94z" />
<glyph unicode="w" horiz-adv-x="974" d="M-80 66q0 92 78 200.5t166 157.5q25 14 86 16q17 1 31 1q35 0 53 -7q18 -6 10 -14q-147 -143 -231 -287q-16 -29 -17 -43q0 -14 15 -14q41 0 208 180q55 61 154 156q23 18 31 20q29 6 71 6q59 0 84 -10q16 -6 11 -14q-63 -57 -129 -146q-90 -119 -90 -178q0 -14 14 -14 q47 0 145 74v8q-2 94 92 196q86 94 142 95q39 0 39 -37q0 -111 -203 -273q12 -31 43 -30q41 0 102 49q74 63 185 153q14 10 24 11q13 0 13 -23q0 -20 -150 -152q-109 -94 -197 -94q-55 0 -77 43q-149 -110 -256 -110h-2q-90 0 -91 75q0 35 17 80q-163 -155 -285 -155h-2 q-84 0 -84 80z" />
<glyph unicode="x" horiz-adv-x="667" d="M-129 -55q2 14 19.5 29.5t183.5 142.5q2 115 69 209q-41 -29 -123 -88q-4 -2 -11 8t-7 20q0 20 72 70q152 104 202 104q55 0 56 -14l-6 -14q-29 -68 -47 -138l192 146q20 14 51 14q59 0 66 -33q0 -10 -8 -20q-20 -23 -322 -219q0 -14 -2 -29q0 -74 55 -74q92 0 232 119 q57 49 162 133q16 12 26 11q10 -3 8 -17q-6 -31 -49 -67q-55 -49 -110 -99q-86 -74 -156 -110q-106 -55 -201 -56q-106 0 -141 74q-141 -92 -160.5 -105.5t-34.5 -15.5q-8 0 -12 5.5t-4 13.5z" />
<glyph unicode="y" horiz-adv-x="835" d="M-410 -496q0 106 240 269q215 145 373 190q66 86 192 256q-84 -74 -184 -139q-135 -86 -205 -86q-84 0 -84 90q0 76 74 178q68 96 135.5 139t155.5 43q45 0 45 -32q0 -18 -99.5 -135t-99.5 -142q0 -10 10 -10q33 0 123 59q72 47 113 84q61 66 182 174q18 12 33 13 q25 0 47 -54q18 -45 18 -69q0 -31 -188 -285q78 14 248 146q163 126 172 126q14 0 14 -14q0 -33 -117 -127q-82 -66 -151 -110q-102 -68 -186 -86q-10 -2 -33 -9q-47 -63 -144.5 -190t-240.5 -242q-182 -147 -301 -147q-47 0 -94.5 31.5t-47.5 78.5zM-295 -475q0 -41 39 -41 q86 0 395 385q-131 -57 -254 -139q-180 -121 -180 -205z" />
<glyph unicode="z" horiz-adv-x="671" d="M-522 -496q0 106 278 275q233 139 394 184q16 25 16 39q0 16 -27 16q-29 0 -89 -18t-66 -18q-12 0 -22.5 22.5t-10.5 42.5q0 6 3 15.5t218 130.5q203 115 238 129q-57 -14 -185 -15q-35 0 -96 21q-6 -4 -141 -123q-14 -12 -31 -12q-29 0 -29 18q0 14 17 27 q260 211 268 211q10 0 49 -14.5t86 -14.5q27 0 94.5 14.5t77.5 14.5q20 0 49 -25q31 -31 31 -64q0 -23 -205 -127q-133 -66 -268 -133l4 -8q125 41 170 41q74 0 86 -51q41 20 195 131q145 106 149 106q12 -6 12 -14q0 -33 -116 -127q-82 -66 -150 -110q-53 -35 -98 -56 q-51 -164 -325.5 -391t-434.5 -227q-47 0 -94 31.5t-47 78.5zM-408 -475q0 -41 39 -41q74 0 250 154q164 141 213 227q-502 -219 -502 -340z" />
<glyph unicode="{" horiz-adv-x="1024" d="M182 608l21 56q186 29 246 65q82 53 143 223l78 215q86 236 225 299q88 42 387 50l-16 -48q-174 -10 -246 -79q-55 -53 -121 -236l-35 -96q-80 -219 -155 -293q-84 -82 -293 -127q98 -25 137 -51q63 -43 63 -125q0 -84 -65 -262l-35 -99q-53 -143 -53 -190 q0 -96 199 -103l-19 -47q-295 0 -354 45q-47 37 -47 113q0 72 41 186l79 215q37 104 37 152q0 109 -217 137z" />
<glyph unicode="|" horiz-adv-x="1024" d="M438 -279v1844h148v-1844h-148z" />
<glyph unicode="}" horiz-adv-x="1024" d="M115 -240l16 47q172 6 240 66q55 51 118 227l37 99q82 223 160 303q90 92 295 135q-209 53 -209 178q0 57 66 242l34 96q55 152 56 203q0 100 -191 112l17 48q293 -8 352 -50q51 -35 51 -106q0 -70 -45 -193l-78 -215q-35 -96 -35 -155q0 -78 72 -107q14 -3 143 -26 l-20 -56q-137 -16 -207 -49q-96 -45 -145 -147q-16 -33 -39 -93l-78 -215q-84 -231 -223 -299q-92 -45 -387 -45z" />
<glyph unicode="~" horiz-adv-x="1325" d="M72 1319q76 127 152.5 181t185.5 54q98 0 284.5 -61t284.5 -61q152 0 250 141l51 -33q-35 -88 -106 -145q-90 -74 -213 -74q-96 0 -291 62.5t-287 62.5q-152 0 -256 -158z" />
<glyph unicode="&#xa1;" horiz-adv-x="671" d="M-61 29q0 6 4 10l747 854q27 31 39 31h27q14 0 22 -11q8 -10 0 -20l-647 -883q-23 -33 -51 -26l-115 24q-27 6 -26 21zM770 1061q-2 29 35 76t69 47q29 0 51.5 -18.5t22.5 -41.5q0 -27 -32.5 -66.5t-65.5 -45.5q-23 -4 -50.5 10t-29.5 39z" />
<glyph unicode="&#xa2;" horiz-adv-x="1505" d="M205 252q0 197 174 432q162 221 399 385q246 168 447 188l110 166q18 31 47 31q31 0 31 -24q-2 -4 -2 -7l-111 -166q150 -16 150 -161t-152 -394q-147 -236 -208 -235q-27 0 -61 32.5t-34 61.5q0 20 52 70q41 37 79 71q274 254 275 410q0 96 -115 96h-18l-758 -1145 q29 -6 61 -6q240 0 531 267q8 2 16 2q31 0 23 -37q-129 -123 -293 -207q-184 -94 -340 -94q-25 0 -47 2l-148 -226q-20 -31 -28 -30q-14 0 -35 10t-12 20l155 236q-188 49 -188 252zM373 266q0 -127 78 -178l731 1104q-258 -76 -533.5 -388t-275.5 -538z" />
<glyph unicode="&#xa3;" horiz-adv-x="1187" d="M6 55q0 70 88 119q78 41 152 41q37 0 69 -8q106 152 228 422h-193q-27 0 -26 24q0 29 49 29h190q109 221 264 379q199 199 398 199q78 0 132 -39t54 -115q0 -51 -48 -94t-99 -43q-74 0 -74 49q0 35 41 72q35 29 74 43q8 16 8 30q0 57 -99 58q-217 0 -462 -539h237 q18 0 19 -23q0 -31 -41 -30h-236q-127 -272 -330 -459q70 -37 91 -43q37 -12 100 -12q227 0 418 172l26 -21q-242 -287 -561 -286q-61 0 -102 28q-27 18 -74 76q-123 -88 -213 -88q-80 0 -80 59zM70 76q0 -29 36 -29q74 0 146 82q-29 29 -57 29q-39 0 -78 -23 q-47 -27 -47 -59z" />
<glyph unicode="&#xa4;" horiz-adv-x="1400" d="M12 428l13 33q10 31 41 31h284q37 82 96 167h-299q-31 0 -20 31l12 33q10 31 41 31h338q176 213 408 356q242 150 428 150q182 0 182 -164q0 -145 -152 -394q-147 -236 -208 -235q-27 0 -61 32.5t-34 61.5q0 20 52 70q41 37 79 71q274 254 275 410q0 96 -115 96 q-143 0 -340 -135q-184 -129 -340 -319h297q31 0 19 -31l-13 -33q-10 -31 -41 -31h-333q-61 -86 -101 -167h354q31 0 19 -31l-12 -33q-10 -31 -41 -31h-359q-23 -72 -22 -131q0 -209 198 -209q240 0 533 267q6 2 14 2q31 0 23 -37q-129 -123 -293 -207q-184 -94 -340 -94 q-303 0 -303 264q0 70 22 145h-280q-31 0 -21 31z" />
<glyph unicode="&#xa8;" horiz-adv-x="618" d="M111 1468q0 25 31.5 62t60.5 43q20 4 47 -10t29 -37t-36 -69t-63 -46q-27 0 -48 17.5t-21 39.5zM350 1468q0 25 32 62t60 43q20 4 47 -10t29 -37t-36 -69t-62 -46q-27 0 -48.5 17.5t-21.5 39.5z" />
<glyph unicode="&#xa9;" horiz-adv-x="1513" d="M92 641q0 270 193.5 463.5t466.5 193.5q270 0 463.5 -193.5t193.5 -463.5q0 -274 -193.5 -466.5t-463.5 -192.5q-274 0 -467 192.5t-193 466.5zM180 641q0 -238 168 -405.5t404 -167.5q238 0 404.5 167.5t166.5 405.5q0 236 -167 402.5t-404 166.5q-238 0 -405 -166.5 t-167 -402.5zM336 631q0 170 130 287.5t312 117.5q41 0 209 -26q29 -6 48.5 -6t11.5 -29q-16 -51 -15 -141q0 -16 -20 -17q-29 0 -29 23l2 14q10 66 -65 107q-63 33 -134 30q-135 -4 -227 -107.5t-92 -250.5q0 -150 92 -254.5t227 -104.5q117 0 183 54q43 35 35 96 q0 23 26 22q20 0 23 -14q-2 -96 12 -143q8 -29 -14.5 -29t-119.5 -17.5t-153 -17.5q-182 0 -312 119t-130 287z" />
<glyph unicode="&#xaa;" horiz-adv-x="1107" d="M354 948q0 51 33 105q53 86 170 147.5t229 61.5q109 0 109 -78q84 78 119 78q25 0 63.5 -26t36.5 -48q-2 -18 -47 -70l-70 -74q-74 -84 -73 -122q0 -23 26 -23q55 0 176 102q63 55 160 132q18 12 27 12q10 0 10 -12v-7q-6 -25 -49 -65q-131 -123 -193 -164 q-145 -98 -221 -98q-115 0 -115 123q0 27 3 41q-39 -53 -107 -97q-84 -53 -164 -53q-49 0 -86 39t-37 96zM588 991q0 -33 33 -33q66 0 149 103q43 53 90 90q4 25 -43 25q-84 0 -174 -86q-55 -53 -55 -99z" />
<glyph unicode="&#xab;" horiz-adv-x="741" d="M168 514q-8 12 4 21l254 137q10 6 18 -2q8 -11 -2 -19l-159 -162l67 -223q4 -14 -6 -18q-12 -2 -18 8zM381 514q-8 12 4 21l252 137q12 6 20 -2q8 -11 -2 -19l-159 -162l65 -223q4 -14 -6 -18q-10 -2 -18 8z" />
<glyph unicode="&#xad;" horiz-adv-x="727" d="M162 281l12 32q10 31 41 31h385q31 0 21 -31l-13 -32q-10 -31 -41 -31h-385q-31 0 -20 31z" />
<glyph unicode="&#xae;" horiz-adv-x="1288" d="M139 1032q0 225 160 384t383 159t382 -160t159 -383t-159 -383t-382 -160q-225 0 -384 160t-159 383zM209 1032q0 -195 138 -334t335 -139q195 0 334 139t139 334q0 197 -138 335t-335 138t-335 -138t-138 -335zM406 729q0 18 16 25q37 0 49 9t12 44v483q0 39 -16 49 q-6 4 -43 7q-18 2 -18 22q0 18 16 25q33 0 100.5 -2t100.5 -2q14 0 42.5 2t41.5 2q80 0 134 -51.5t54 -127.5q0 -115 -127 -165q90 -35 123 -156t115 -160q14 -6 14 -14q0 -18 -25 -19q-133 0 -182 84q-29 78 -59 156q-41 86 -156 86v-219q0 -49 43 -52t43 -26 q0 -25 -18 -24q-20 0 -60.5 3t-60.5 3t-61.5 -3t-61.5 -3q-16 6 -16 24zM598 1069q180 2 180 145q0 63 -24.5 92t-85.5 29q-70 0 -70 -45v-221z" />
<glyph unicode="&#xaf;" horiz-adv-x="731" d="M135 1487v88h486v-88h-486z" />
<glyph unicode="&#xb4;" horiz-adv-x="548" d="M94 1337l203 205q41 41 80 41q61 0 61 -61q0 -39 -37 -60l-233 -125h-74z" />
<glyph unicode="&#xb7;" horiz-adv-x="552" d="M229 322q0 25 34 64.5t65 45.5q23 4 50.5 -10t29.5 -39q2 -27 -35 -75t-70 -48q-29 0 -51.5 18.5t-22.5 43.5z" />
<glyph unicode="&#xb8;" horiz-adv-x="458" d="M43 -344q0 63 66 63q18 0 34.5 -14t24.5 -14q39 0 75 40t36 76q0 27 -33 27t-74 -24q-14 -10 -28.5 -21.5t-24.5 -7.5q-14 6 2 26l121 193h59l-45 -90q47 4 59 4q54 0 54 -39q0 -92 -136 -205q-72 -59 -133 -59q-57 0 -57 45z" />
<glyph unicode="&#xba;" horiz-adv-x="911" d="M365 934q0 139 129 237q119 90 256 91q41 0 74.5 -11.5t33.5 -21.5t-8 -12q-135 -31 -232 -164q-37 -51 -36 -97q0 -43 34 -43q51 0 142 103q-18 23 -19 49q0 29 19 61q47 82 112 82q39 0 39 -49q0 -68 -49 -121q12 -4 39 -4q49 0 109 35q49 31 96 64q18 11 22 -5 q8 -29 -24 -57q-113 -96 -219 -96q-47 0 -64 8q-43 -57 -114 -115q-104 -82 -197 -82q-59 0 -98 37q-45 41 -45 111z" />
<glyph unicode="&#xbb;" horiz-adv-x="995" d="M362 268q-8 10 3 19l159 162l-67 223q-4 14 8 18q10 2 18 -8l156 -258q8 -12 -4 -21l-252 -137q-12 -6 -21 2zM573 268q-6 10 2 19l160 162l-65 223q-4 14 6 18q10 2 18 -8l158 -258q6 -12 -6 -21l-252 -137q-12 -6 -21 2z" />
<glyph unicode="&#xbf;" horiz-adv-x="1091" d="M131 135q0 117 225 316q162 131 326 262q102 88 240 245q18 23 45 23q14 0 14 -14q0 -10 -6 -25q-53 -96 -230 -254q-227 -203 -280 -262q-137 -154 -137 -281q0 -96 116 -96q109 0 239 99.5t130 203.5q0 51 -39 60.5t-39 21.5q0 23 23.5 64t46.5 41q47 0 88 -39t41 -86 q0 -168 -207 -305q-186 -125 -365 -125q-88 0 -151 32q-80 41 -80 119zM969 1100q0 31 36.5 75t67.5 44q25 0 49.5 -17.5t24.5 -42.5q0 -31 -39 -71.5t-70 -40.5q-25 0 -47 15t-22 38z" />
<glyph unicode="&#xc0;" horiz-adv-x="2441" d="M31 55q0 195 506 344q442 131 1114 191q80 92 329 428q184 246 304 348q170 143 350 143q121 1 121 -110q0 -127 -150 -355q-47 -70 -317 -428q158 -10 157 -61q0 -35 -61.5 -123t-93.5 -88q-35 0 -95 4q-70 4 -94 4q-160 -250 -159 -403q0 -147 126 -146q2 -4 3 -10 q0 -10 -10.5 -26.5t-20.5 -16.5q-78 0 -123 53.5t-45 135.5q0 162 156 413q-256 -2 -519 -12q-471 -449 -1140 -449q-154 0 -246 42t-92 122zM102 49q0 -49 101 -72q66 -14 137 -14q615 0 1057 373q-553 -29 -889 -92q-406 -78 -406 -195zM1741 596q242 18 469 20 q199 270 233 324q107 164 107 248q0 31 -24.5 52.5t-55.5 21.5q-129 0 -254 -99q-94 -74 -227 -245q-123 -160 -248 -322zM2300 1788q0 61 61 61q39 0 80 -41l203 -204h-74l-233 125q-37 20 -37 59z" />
<glyph unicode="&#xc1;" horiz-adv-x="2441" d="M31 55q0 195 506 344q442 131 1114 191q80 92 329 428q184 246 304 348q170 143 350 143q121 1 121 -110q0 -127 -150 -355q-47 -70 -317 -428q158 -10 157 -61q0 -35 -61.5 -123t-93.5 -88q-35 0 -95 4q-70 4 -94 4q-160 -250 -159 -403q0 -147 126 -146q2 -4 3 -10 q0 -10 -10.5 -26.5t-20.5 -16.5q-78 0 -123 53.5t-45 135.5q0 162 156 413q-256 -2 -519 -12q-471 -449 -1140 -449q-154 0 -246 42t-92 122zM102 49q0 -49 101 -72q66 -14 137 -14q615 0 1057 373q-553 -29 -889 -92q-406 -78 -406 -195zM1741 596q242 18 469 20 q199 270 233 324q107 164 107 248q0 31 -24.5 52.5t-55.5 21.5q-129 0 -254 -99q-94 -74 -227 -245q-123 -160 -248 -322zM2595 1604l203 204q41 41 79 41q62 0 62 -61q0 -39 -37 -59l-233 -125h-74z" />
<glyph unicode="&#xc2;" horiz-adv-x="2441" d="M31 55q0 195 506 344q442 131 1114 191q80 92 329 428q184 246 304 348q170 143 350 143q121 1 121 -110q0 -127 -150 -355q-47 -70 -317 -428q158 -10 157 -61q0 -35 -61.5 -123t-93.5 -88q-35 0 -95 4q-70 4 -94 4q-160 -250 -159 -403q0 -147 126 -146q2 -4 3 -10 q0 -10 -10.5 -26.5t-20.5 -16.5q-78 0 -123 53.5t-45 135.5q0 162 156 413q-256 -2 -519 -12q-471 -449 -1140 -449q-154 0 -246 42t-92 122zM102 49q0 -49 101 -72q66 -14 137 -14q615 0 1057 373q-553 -29 -889 -92q-406 -78 -406 -195zM1741 596q242 18 469 20 q199 270 233 324q107 164 107 248q0 31 -24.5 52.5t-55.5 21.5q-129 0 -254 -99q-94 -74 -227 -245q-123 -160 -248 -322zM2427 1595l153 166q53 57 107 58q63 0 90 -58l76 -164l-47 -2q-23 0 -34 4.5t-30 30.5l-65 92l-105 -92q-10 -10 -35 -26q-23 -8 -61 -9h-49z" />
<glyph unicode="&#xc3;" horiz-adv-x="2441" d="M31 55q0 195 506 344q442 131 1114 191q80 92 329 428q184 246 304 348q170 143 350 143q121 1 121 -110q0 -127 -150 -355q-47 -70 -317 -428q158 -10 157 -61q0 -35 -61.5 -123t-93.5 -88q-35 0 -95 4q-70 4 -94 4q-160 -250 -159 -403q0 -147 126 -146q2 -4 3 -10 q0 -10 -10.5 -26.5t-20.5 -16.5q-78 0 -123 53.5t-45 135.5q0 162 156 413q-256 -2 -519 -12q-471 -449 -1140 -449q-154 0 -246 42t-92 122zM102 49q0 -49 101 -72q66 -14 137 -14q615 0 1057 373q-553 -29 -889 -92q-406 -78 -406 -195zM1741 596q242 18 469 20 q199 270 233 324q107 164 107 248q0 31 -24.5 52.5t-55.5 21.5q-129 0 -254 -99q-94 -74 -227 -245q-123 -160 -248 -322zM2480 1630q0 10 23 43q74 102 159 103q35 0 86.5 -34t79.5 -34q29 0 51.5 24.5t28.5 24.5q14 0 14 -10q0 -8 -16 -31q-45 -66 -57 -78 q-39 -37 -88 -36q-29 0 -92.5 33.5t-85.5 33.5q-29 0 -55.5 -22.5t-35.5 -22.5q-12 0 -12 6z" />
<glyph unicode="&#xc4;" horiz-adv-x="2441" d="M31 55q0 195 506 344q442 131 1114 191q80 92 329 428q184 246 304 348q170 143 350 143q121 1 121 -110q0 -127 -150 -355q-47 -70 -317 -428q158 -10 157 -61q0 -35 -61.5 -123t-93.5 -88q-35 0 -95 4q-70 4 -94 4q-160 -250 -159 -403q0 -147 126 -146q2 -4 3 -10 q0 -10 -10.5 -26.5t-20.5 -16.5q-78 0 -123 53.5t-45 135.5q0 162 156 413q-256 -2 -519 -12q-471 -449 -1140 -449q-154 0 -246 42t-92 122zM102 49q0 -49 101 -72q66 -14 137 -14q615 0 1057 373q-553 -29 -889 -92q-406 -78 -406 -195zM1741 596q242 18 469 20 q199 270 233 324q107 164 107 248q0 31 -24.5 52.5t-55.5 21.5q-129 0 -254 -99q-94 -74 -227 -245q-123 -160 -248 -322zM2519 1692q0 25 32 61.5t60 42.5q20 4 47 -10t29 -37t-36 -69t-62 -46q-27 0 -48.5 17.5t-21.5 40.5zM2759 1692q0 25 31.5 61.5t60.5 42.5 q20 4 47 -10t29 -37t-36 -69t-63 -46q-27 0 -48 17.5t-21 40.5z" />
<glyph unicode="&#xc5;" horiz-adv-x="2441" d="M31 55q0 195 506 344q442 131 1114 191q80 92 329 428q184 246 304 348q170 143 350 143q121 1 121 -110q0 -127 -150 -355q-47 -70 -317 -428q158 -10 157 -61q0 -35 -61.5 -123t-93.5 -88q-35 0 -95 4q-70 4 -94 4q-160 -250 -159 -403q0 -147 126 -146q2 -4 3 -10 q0 -10 -10.5 -26.5t-20.5 -16.5q-78 0 -123 53.5t-45 135.5q0 162 156 413q-256 -2 -519 -12q-471 -449 -1140 -449q-154 0 -246 42t-92 122zM102 49q0 -49 101 -72q66 -14 137 -14q615 0 1057 373q-553 -29 -889 -92q-406 -78 -406 -195zM1741 596q242 18 469 20 q199 270 233 324q107 164 107 248q0 31 -24.5 52.5t-55.5 21.5q-129 0 -254 -99q-94 -74 -227 -245q-123 -160 -248 -322zM2595 1720q0 86 65.5 152.5t151.5 66.5q61 0 103 -40t42 -101q0 -84 -68.5 -148.5t-152.5 -64.5q-61 0 -101 37t-40 98zM2666 1735q0 -80 84 -80 q49 0 89 38t40 89q0 82 -83 82q-51 0 -90.5 -39t-39.5 -90z" />
<glyph unicode="&#xc6;" horiz-adv-x="3403" d="M39 55q0 195 506 344q442 131 1114 191q80 92 330 428q184 246 303 348q170 143 350 143q76 0 106 -49q92 45 201 45q137 0 537 -92l182 51q174 49 270 49q92 0 153.5 -39.5t61.5 -105.5q0 -74 -101 -197.5t-171 -123.5q-131 0 -326 71q-45 16 -342 142l-590 -175 q47 -199 220 -348q141 20 264 21q80 0 128 -32t48 -77q0 -96 -158 -96q-145 0 -284 102q-264 -66 -455 -198q-213 -150 -213 -314q0 -115 115 -184q100 -59 223 -59q274 0 459 92q162 82 161 170q12 18 31 18q31 0 43 -33q0 -129 -207 -241q-217 -119 -495 -119 q-246 0 -408 100q-176 109 -176 291q0 90 63 174q-231 -2 -464 -12q-471 -449 -1141 -449q-154 0 -246 42t-92 122zM111 49q0 -49 100 -72q66 -14 137 -14q615 0 1057 373q-553 -29 -889 -92q-406 -78 -405 -195zM1749 596q242 18 469 20l172 234q88 125 127 203 q-45 -14 -96 -31q-20 -4 -29 -4q-16 0 -30.5 25.5t-14.5 37.5q0 14 25 23q71 22 180 51q0 106 -74 107q-125 0 -248 -99q-96 -76 -231 -245q-125 -160 -250 -322zM2296 616q37 -4 67 -8q185 74 402 115q-123 123 -182 276q-33 -45 -287 -383zM2605 1171q226 62 490 136 q-174 61 -269 61q-100 0 -160.5 -57.5t-60.5 -139.5zM2929 676q102 -61 209 -62q65 0 65 39q0 41 -84 41q-88 0 -190 -18zM3625 1382q211 -43 326 -43q35 0 71.5 17.5t36.5 44.5q0 51 -121 51q-90 0 -168 -25q-29 -8 -145 -45z" />
<glyph unicode="&#xc7;" horiz-adv-x="1591" d="M20 43q0 299 273 659q254 338 620 576q379 246 672 246q266 0 266 -242q0 -141 -112 -375q-100 -205 -231.5 -377t-186.5 -172q-39 0 -88 49.5t-49 90.5q0 31 76 104q57 51 116 105q141 131 248 268q156 205 156 332q0 143 -168 143q-240 0 -570 -250 q-309 -233 -536 -557q-238 -338 -238 -577q0 -309 291 -310q188 0 422 129q184 102 360 262q12 4 23 5q47 0 35 -56q-193 -180 -432 -303q-272 -139 -502 -139q-53 0 -100 6l-31 -59q47 4 59 4q53 0 53 -39q0 -92 -135 -205q-72 -59 -133 -59q-57 0 -57 45q0 63 65 63 q18 0 35 -14t25 -14q39 0 74.5 39.5t35.5 76.5q0 27 -32 27q-33 0 -74 -25q-14 -10 -28.5 -21t-24.5 -7q-14 6 2 26l108 172q-287 68 -287 373z" />
<glyph unicode="&#xc8;" horiz-adv-x="1556" d="M72 178q0 188 268 344q236 137 578 201q-158 158 -203 342q-147 -39 -305 -80q-20 -4 -29 -4q-16 0 -30.5 25.5t-14.5 37.5q0 14 24 23q131 33 345 88v21q0 135 116.5 232t280.5 97q139 0 536 -92l183 51q174 49 270 49q92 0 153.5 -39.5t61.5 -105.5 q0 -74 -101.5 -197.5t-170.5 -123.5q-129 0 -326 71q-45 16 -342 142l-590 -175q47 -199 221 -348q139 20 263 21q80 0 128 -32t48 -77q0 -96 -158 -96q-145 0 -283 102q-266 -66 -454 -198q-215 -150 -215 -314q0 -123 105.5 -201.5t258.5 -78.5q250 0 434 104 q168 96 168 195q12 18 29 18q25 0 37 -33q0 -129 -207 -241q-217 -119 -496 -119q-246 0 -407 100q-176 109 -176 291zM758 1171q225 62 489 136q-174 61 -268 61q-100 0 -160.5 -57.5t-60.5 -139.5zM1081 676q102 -61 209 -62q66 0 66 39q0 41 -84 41q-86 0 -191 -18z M1311 1772q0 61 61 61q39 0 80 -41l203 -205h-74l-233 125q-37 20 -37 60zM1778 1382q211 -43 325 -43q35 0 72 17.5t37 44.5q0 51 -121 51q-88 0 -168 -25q-29 -8 -145 -45z" />
<glyph unicode="&#xc9;" horiz-adv-x="1556" d="M72 178q0 188 268 344q236 137 578 201q-158 158 -203 342q-147 -39 -305 -80q-20 -4 -29 -4q-16 0 -30.5 25.5t-14.5 37.5q0 14 24 23q131 33 345 88v21q0 135 116.5 232t280.5 97q139 0 536 -92l183 51q174 49 270 49q92 0 153.5 -39.5t61.5 -105.5 q0 -74 -101.5 -197.5t-170.5 -123.5q-129 0 -326 71q-45 16 -342 142l-590 -175q47 -199 221 -348q139 20 263 21q80 0 128 -32t48 -77q0 -96 -158 -96q-145 0 -283 102q-266 -66 -454 -198q-215 -150 -215 -314q0 -123 105.5 -201.5t258.5 -78.5q250 0 434 104 q168 96 168 195q12 18 29 18q25 0 37 -33q0 -129 -207 -241q-217 -119 -496 -119q-246 0 -407 100q-176 109 -176 291zM758 1171q225 62 489 136q-174 61 -268 61q-100 0 -160.5 -57.5t-60.5 -139.5zM1081 676q102 -61 209 -62q66 0 66 39q0 41 -84 41q-86 0 -191 -18z M1534 1567l203 205q41 41 80 40q61 0 61 -61q0 -39 -37 -59l-233 -125h-74zM1778 1382q211 -43 325 -43q35 0 72 17.5t37 44.5q0 51 -121 51q-88 0 -168 -25q-29 -8 -145 -45z" />
<glyph unicode="&#xca;" horiz-adv-x="1556" d="M72 178q0 188 268 344q236 137 578 201q-158 158 -203 342q-147 -39 -305 -80q-20 -4 -29 -4q-16 0 -30.5 25.5t-14.5 37.5q0 14 24 23q131 33 345 88v21q0 135 116.5 232t280.5 97q139 0 536 -92l183 51q174 49 270 49q92 0 153.5 -39.5t61.5 -105.5 q0 -74 -101.5 -197.5t-170.5 -123.5q-129 0 -326 71q-45 16 -342 142l-590 -175q47 -199 221 -348q139 20 263 21q80 0 128 -32t48 -77q0 -96 -158 -96q-145 0 -283 102q-266 -66 -454 -198q-215 -150 -215 -314q0 -123 105.5 -201.5t258.5 -78.5q250 0 434 104 q168 96 168 195q12 18 29 18q25 0 37 -33q0 -129 -207 -241q-217 -119 -496 -119q-246 0 -407 100q-176 109 -176 291zM758 1171q225 62 489 136q-174 61 -268 61q-100 0 -160.5 -57.5t-60.5 -139.5zM1081 676q102 -61 209 -62q66 0 66 39q0 41 -84 41q-86 0 -191 -18z M1409 1585l154 166q53 57 106 57q63 0 90 -57l76 -164l-47 -2q-23 0 -34 4t-30 31l-65 92l-105 -92q-10 -10 -34 -27q-23 -8 -62 -8h-49zM1778 1382q211 -43 325 -43q35 0 72 17.5t37 44.5q0 51 -121 51q-88 0 -168 -25q-29 -8 -145 -45z" />
<glyph unicode="&#xcb;" horiz-adv-x="1556" d="M72 178q0 188 268 344q236 137 578 201q-158 158 -203 342q-147 -39 -305 -80q-20 -4 -29 -4q-16 0 -30.5 25.5t-14.5 37.5q0 14 24 23q131 33 345 88v21q0 135 116.5 232t280.5 97q139 0 536 -92l183 51q174 49 270 49q92 0 153.5 -39.5t61.5 -105.5 q0 -74 -101.5 -197.5t-170.5 -123.5q-129 0 -326 71q-45 16 -342 142l-590 -175q47 -199 221 -348q139 20 263 21q80 0 128 -32t48 -77q0 -96 -158 -96q-145 0 -283 102q-266 -66 -454 -198q-215 -150 -215 -314q0 -123 105.5 -201.5t258.5 -78.5q250 0 434 104 q168 96 168 195q12 18 29 18q25 0 37 -33q0 -129 -207 -241q-217 -119 -496 -119q-246 0 -407 100q-176 109 -176 291zM758 1171q225 62 489 136q-174 61 -268 61q-100 0 -160.5 -57.5t-60.5 -139.5zM1081 676q102 -61 209 -62q66 0 66 39q0 41 -84 41q-86 0 -191 -18z M1440 1665q0 25 31.5 61.5t60.5 42.5q20 4 47 -10t29 -37t-36 -68.5t-63 -45.5q-27 0 -48 17t-21 40zM1679 1665q0 25 32 61.5t61 42.5q20 4 46.5 -10t28.5 -37t-35.5 -68.5t-62.5 -45.5q-27 0 -48.5 17t-21.5 40zM1778 1382q211 -43 325 -43q35 0 72 17.5t37 44.5 q0 51 -121 51q-88 0 -168 -25q-29 -8 -145 -45z" />
<glyph unicode="&#xcc;" horiz-adv-x="1687" d="M35 104q0 178 293 287q252 92 557 92q100 0 180 -18.5t80 -40.5q0 -49 -61.5 -131t-94.5 -82q-14 0 -88 4t-129 4q-246 0 -446 -45q-213 -49 -213 -115q0 -86 256 -86q453 0 944 398q-37 94 -37 215q0 340 189.5 629.5t410.5 289.5q178 1 178 -198q0 -223 -166 -504 q-170 -289 -442 -514q4 -4 43 -41q31 -29 31 -45q0 -35 -31 -35q-23 0 -48.5 23.5t-51.5 50.5q-457 -350 -963 -351q-184 0 -287.5 58.5t-103.5 154.5zM1374 561q0 -70 10 -131q258 225 430.5 479.5t172.5 401.5q0 117 -103 116q-152 0 -328 -288q-182 -299 -182 -578z M1659 1772q0 61 61 61q39 0 80 -41l203 -205h-74l-233 125q-37 20 -37 60z" />
<glyph unicode="&#xcd;" horiz-adv-x="1687" d="M35 104q0 178 293 287q252 92 557 92q100 0 180 -18.5t80 -40.5q0 -49 -61.5 -131t-94.5 -82q-14 0 -88 4t-129 4q-246 0 -446 -45q-213 -49 -213 -115q0 -86 256 -86q453 0 944 398q-37 94 -37 215q0 340 189.5 629.5t410.5 289.5q178 1 178 -198q0 -223 -166 -504 q-170 -289 -442 -514q4 -4 43 -41q31 -29 31 -45q0 -35 -31 -35q-23 0 -48.5 23.5t-51.5 50.5q-457 -350 -963 -351q-184 0 -287.5 58.5t-103.5 154.5zM1374 561q0 -70 10 -131q258 225 430.5 479.5t172.5 401.5q0 117 -103 116q-152 0 -328 -288q-182 -299 -182 -578z M1890 1587l203 205q41 41 80 41q61 0 61 -61q0 -39 -36 -60l-234 -125h-74z" />
<glyph unicode="&#xce;" horiz-adv-x="1687" d="M35 104q0 178 293 287q252 92 557 92q100 0 180 -18.5t80 -40.5q0 -49 -61.5 -131t-94.5 -82q-14 0 -88 4t-129 4q-246 0 -446 -45q-213 -49 -213 -115q0 -86 256 -86q453 0 944 398q-37 94 -37 215q0 340 189.5 629.5t410.5 289.5q178 1 178 -198q0 -223 -166 -504 q-170 -289 -442 -514q4 -4 43 -41q31 -29 31 -45q0 -35 -31 -35q-23 0 -48.5 23.5t-51.5 50.5q-457 -350 -963 -351q-184 0 -287.5 58.5t-103.5 154.5zM1374 561q0 -70 10 -131q258 225 430.5 479.5t172.5 401.5q0 117 -103 116q-152 0 -328 -288q-182 -299 -182 -578z M1659 1579l153 166q53 57 107 57q63 0 90 -57l76 -164l-47 -2q-23 0 -34 4t-30 31l-65 92l-105 -92q-10 -10 -35 -27q-23 -8 -61 -8h-49z" />
<glyph unicode="&#xcf;" horiz-adv-x="1687" d="M35 104q0 178 293 287q252 92 557 92q100 0 180 -18.5t80 -40.5q0 -49 -61.5 -131t-94.5 -82q-14 0 -88 4t-129 4q-246 0 -446 -45q-213 -49 -213 -115q0 -86 256 -86q453 0 944 398q-37 94 -37 215q0 340 189.5 629.5t410.5 289.5q178 1 178 -198q0 -223 -166 -504 q-170 -289 -442 -514q4 -4 43 -41q31 -29 31 -45q0 -35 -31 -35q-23 0 -48.5 23.5t-51.5 50.5q-457 -350 -963 -351q-184 0 -287.5 58.5t-103.5 154.5zM1374 561q0 -70 10 -131q258 225 430.5 479.5t172.5 401.5q0 117 -103 116q-152 0 -328 -288q-182 -299 -182 -578z M1733 1665q0 25 31.5 61.5t60.5 42.5q20 4 47 -10t29 -37t-36 -68.5t-63 -45.5q-27 0 -48 17t-21 40zM1972 1665q0 25 32 61.5t60 42.5q20 4 47 -10t29 -37t-36 -68.5t-62 -45.5q-27 0 -48.5 17t-21.5 40z" />
<glyph unicode="&#xd0;" horiz-adv-x="3037" d="M53 471q0 279 584 537q467 207 1184 356q618 129 932 129q315 0 497 -80q205 -90 205 -268q0 -303 -391 -594q-332 -246 -836 -416q-463 -158 -766 -158q-289 0 -288 132q14 16 38 16q25 0 33 -12q0 -53 152 -54q266 0 729 154q506 166 844 391q403 270 403 533 q0 190 -414 190q-383 0 -981 -135q-121 -162 -430 -555h322q31 0 31 -31v-55q0 -31 -31 -31h-414q-260 -328 -401 -502q-33 -41 -88 -38q-78 4 -78 65q0 18 10 33q31 41 375 442h-297q-31 0 -31 31v55q0 31 31 31h397l422 493q10 12 21 23q-641 -158 -1171.5 -372 t-530.5 -318q0 -33 -27 -33q-35 0 -35 41z" />
<glyph unicode="&#xd1;" horiz-adv-x="2494" d="M47 172q0 150 285 250q254 90 549 90q100 0 180 -18.5t80 -40.5q0 -41 -51.5 -107.5t-83.5 -66.5q-14 0 -88 4t-130 4q-238 0 -441.5 -50.5t-203.5 -109.5q0 -86 308 -86q332 0 720 225q360 211 611 516q258 315 258 566q-25 51 -94 51q-51 0 -80 -29q0 47 47 88 q61 53 166 53q190 0 190 -204q0 -184 -145.5 -627.5t-145.5 -527.5q0 -47 41 -48q49 0 496 506q514 582 575 639q150 139 211 183q135 92 269 92q70 0 109.5 -30t39.5 -73q0 -92 -61 -92q-23 0 -23 23q0 8 5 24.5t5 26.5q0 43 -84 43q-154 0 -395 -229q-61 -57 -373 -412 q-344 -393 -514 -569q-276 -287 -348 -287q-66 0 -120 58.5t-54 123.5q0 84 74 338q70 231 139 461q-225 -395 -655 -670q-442 -285 -869 -285q-399 0 -399 197zM2568 1563q0 8 25 43q74 102 157 102q37 0 87.5 -34t78.5 -34q31 0 52.5 25t29.5 25q13 -1 13 -11t-15 -30 q-47 -66 -59 -78q-37 -37 -88 -37q-29 0 -91.5 32.5t-84.5 32.5q-29 0 -56.5 -22.5t-33.5 -22.5q-14 0 -15 9z" />
<glyph unicode="&#xd2;" horiz-adv-x="1875" d="M18 293q0 262 228 551q211 268 527.5 453.5t574.5 185.5h10q57 0 57 -37q0 -35 -33 -35h-43q-211 0 -498.5 -168t-486.5 -399q-217 -256 -217 -471q0 -305 434 -305q270 0 646 196q360 190 616 451q274 281 274 495q0 106 -59 167t-164 61q-197 0 -569 -267 q-141 -100 -443 -364q-283 -248 -348 -320q-37 -41 -110 -41q-55 0 -103 23q-59 27 -59 74q0 53 358 315q266 197 506 350q463 299 721 299q166 0 261 -84.5t95 -244.5q0 -287 -288 -609q-264 -297 -657.5 -504.5t-704.5 -207.5q-244 0 -381 110q-143 115 -144 326z M1638 1788q0 61 62 61q39 0 80 -41l202 -204h-73l-234 125q-37 20 -37 59z" />
<glyph unicode="&#xd3;" horiz-adv-x="1875" d="M18 293q0 262 228 551q211 268 527.5 453.5t574.5 185.5h10q57 0 57 -37q0 -35 -33 -35h-43q-211 0 -498.5 -168t-486.5 -399q-217 -256 -217 -471q0 -305 434 -305q270 0 646 196q360 190 616 451q274 281 274 495q0 106 -59 167t-164 61q-197 0 -569 -267 q-141 -100 -443 -364q-283 -248 -348 -320q-37 -41 -110 -41q-55 0 -103 23q-59 27 -59 74q0 53 358 315q266 197 506 350q463 299 721 299q166 0 261 -84.5t95 -244.5q0 -287 -288 -609q-264 -297 -657.5 -504.5t-704.5 -207.5q-244 0 -381 110q-143 115 -144 326z M1878 1597l203 205q41 41 80 41q61 0 61 -61q0 -39 -37 -60l-233 -125h-74z" />
<glyph unicode="&#xd4;" horiz-adv-x="1875" d="M18 293q0 262 228 551q211 268 527.5 453.5t574.5 185.5h10q57 0 57 -37q0 -35 -33 -35h-43q-211 0 -498.5 -168t-486.5 -399q-217 -256 -217 -471q0 -305 434 -305q270 0 646 196q360 190 616 451q274 281 274 495q0 106 -59 167t-164 61q-197 0 -569 -267 q-141 -100 -443 -364q-283 -248 -348 -320q-37 -41 -110 -41q-55 0 -103 23q-59 27 -59 74q0 53 358 315q266 197 506 350q463 299 721 299q166 0 261 -84.5t95 -244.5q0 -287 -288 -609q-264 -297 -657.5 -504.5t-704.5 -207.5q-244 0 -381 110q-143 115 -144 326z M1597 1595l154 166q53 57 107 58q63 0 90 -58l75 -164l-47 -2q-23 0 -34 4.5t-29 30.5l-66 92l-104 -92q-10 -10 -35 -26q-23 -8 -61 -9h-50z" />
<glyph unicode="&#xd5;" horiz-adv-x="1875" d="M18 293q0 262 228 551q211 268 527.5 453.5t574.5 185.5h10q57 0 57 -37q0 -35 -33 -35h-43q-211 0 -498.5 -168t-486.5 -399q-217 -256 -217 -471q0 -305 434 -305q270 0 646 196q360 190 616 451q274 281 274 495q0 106 -59 167t-164 61q-197 0 -569 -267 q-141 -100 -443 -364q-283 -248 -348 -320q-37 -41 -110 -41q-55 0 -103 23q-59 27 -59 74q0 53 358 315q266 197 506 350q463 299 721 299q166 0 261 -84.5t95 -244.5q0 -287 -288 -609q-264 -297 -657.5 -504.5t-704.5 -207.5q-244 0 -381 110q-143 115 -144 326z M1671 1626q0 10 25 43q72 102 157 103q35 0 86.5 -34t79.5 -34q29 0 51.5 24.5t30.5 24.5q13 0 13 -10t-15 -31q-47 -66 -59 -78q-37 -37 -88 -37q-29 0 -91.5 34t-84.5 34q-31 0 -57.5 -22.5t-35.5 -22.5q-12 0 -12 6z" />
<glyph unicode="&#xd6;" horiz-adv-x="1875" d="M18 293q0 262 228 551q211 268 527.5 453.5t574.5 185.5h10q57 0 57 -37q0 -35 -33 -35h-43q-211 0 -498.5 -168t-486.5 -399q-217 -256 -217 -471q0 -305 434 -305q270 0 646 196q360 190 616 451q274 281 274 495q0 106 -59 167t-164 61q-197 0 -569 -267 q-141 -100 -443 -364q-283 -248 -348 -320q-37 -41 -110 -41q-55 0 -103 23q-59 27 -59 74q0 53 358 315q266 197 506 350q463 299 721 299q166 0 261 -84.5t95 -244.5q0 -287 -288 -609q-264 -297 -657.5 -504.5t-704.5 -207.5q-244 0 -381 110q-143 115 -144 326z M1710 1655q0 25 32 61.5t60 42.5q20 4 47 -10t29 -37t-36 -69t-62 -46q-27 0 -48.5 17.5t-21.5 40.5zM1950 1655q0 25 31.5 61.5t60.5 42.5q20 4 47 -10t29 -37t-36 -69t-63 -46q-27 0 -48 17.5t-21 40.5z" />
<glyph unicode="&#xd8;" horiz-adv-x="1875" d="M-72 -98q-18 25 9 43l145 94q-63 94 -64 231q0 217 152 457q139 223 375 412q430 344 803 344h10q57 0 57 -37q0 -35 -33 -35h-43q-154 0 -360.5 -94t-392.5 -248q-195 -160 -322 -361.5t-127 -357.5q0 -129 107 -203l1827 1211q-55 80 -175 80q-209 0 -581 -267 q-141 -100 -443 -364q-283 -248 -348 -320q-37 -41 -110 -41q-55 0 -103 23q-59 27 -59 74q0 53 358 315q266 197 506 350q463 299 721 299q215 0 297 -106l190 125q27 16 43 -8l9 -15q18 -25 -9 -41l-194 -131q20 -59 20 -141q0 -311 -288 -637q-260 -295 -653.5 -495.5 t-708.5 -200.5q-276 0 -410 123l-153 -101q-27 -16 -43 8zM322 106q102 -39 249 -38q270 0 646 200q358 190 616 457q274 283 274 498q0 33 -6 61z" />
<glyph unicode="&#xd9;" horiz-adv-x="1523" d="M109 233q0 360 636 1055q150 166 191 180q29 12 82 13q66 0 133 -17q84 -20 84 -47q0 -8 -164 -168q-221 -215 -375 -381q-440 -477 -440 -643q0 -180 186 -180q190 0 471 160q180 315 537 796q416 563 604 564q66 -1 66 -60q0 -213 -244 -532q-227 -297 -567 -563 q-86 -158 -115 -217q-37 -88 -119 -259q-16 -31 -41 -30q-59 0 -125 41q-72 45 -71 98q0 18 28 76q-276 -143 -467 -144q-137 0 -213.5 70t-76.5 188zM1276 1751q0 61 61 61q39 0 80 -40l203 -205h-74l-233 125q-37 20 -37 59zM1384 549q285 246 474 500q198 263 198 413 q0 35 -39 35q-104 0 -633 -948z" />
<glyph unicode="&#xda;" horiz-adv-x="1523" d="M109 233q0 360 636 1055q150 166 191 180q29 12 82 13q66 0 133 -17q84 -20 84 -47q0 -8 -164 -168q-221 -215 -375 -381q-440 -477 -440 -643q0 -180 186 -180q190 0 471 160q180 315 537 796q416 563 604 564q66 -1 66 -60q0 -213 -244 -532q-227 -297 -567 -563 q-86 -158 -115 -217q-37 -88 -119 -259q-16 -31 -41 -30q-59 0 -125 41q-72 45 -71 98q0 18 28 76q-276 -143 -467 -144q-137 0 -213.5 70t-76.5 188zM1384 549q285 246 474 500q198 263 198 413q0 35 -39 35q-104 0 -633 -948zM1501 1563l203 204q41 41 80 41q61 0 61 -61 q0 -39 -37 -59l-233 -125h-74z" />
<glyph unicode="&#xdb;" horiz-adv-x="1523" d="M109 233q0 360 636 1055q150 166 191 180q29 12 82 13q66 0 133 -17q84 -20 84 -47q0 -8 -164 -168q-221 -215 -375 -381q-440 -477 -440 -643q0 -180 186 -180q190 0 471 160q180 315 537 796q416 563 604 564q66 -1 66 -60q0 -213 -244 -532q-227 -297 -567 -563 q-86 -158 -115 -217q-37 -88 -119 -259q-16 -31 -41 -30q-59 0 -125 41q-72 45 -71 98q0 18 28 76q-276 -143 -467 -144q-137 0 -213.5 70t-76.5 188zM1362 1561l154 165q53 57 106 58q63 0 90 -58l76 -163l-47 -2q-23 0 -34 4t-30 30l-65 93l-105 -93q-10 -10 -34 -26 q-23 -8 -62 -8h-49zM1384 549q285 246 474 500q198 263 198 413q0 35 -39 35q-104 0 -633 -948z" />
<glyph unicode="&#xdc;" horiz-adv-x="1523" d="M109 233q0 360 636 1055q150 166 191 180q29 12 82 13q66 0 133 -17q84 -20 84 -47q0 -8 -164 -168q-221 -215 -375 -381q-440 -477 -440 -643q0 -180 186 -180q190 0 471 160q180 315 537 796q416 563 604 564q66 -1 66 -60q0 -213 -244 -532q-227 -297 -567 -563 q-86 -158 -115 -217q-37 -88 -119 -259q-16 -31 -41 -30q-59 0 -125 41q-72 45 -71 98q0 18 28 76q-276 -143 -467 -144q-137 0 -213.5 70t-76.5 188zM1384 549q285 246 474 500q198 263 198 413q0 35 -39 35q-104 0 -633 -948zM1384 1630q0 25 32 62t61 43q20 4 46.5 -10 t28.5 -37t-35.5 -69t-62.5 -46q-27 0 -48.5 17.5t-21.5 39.5zM1624 1630q0 25 32 62t60 43q20 4 47 -10t29 -37t-36 -69t-62 -46q-27 0 -48.5 17.5t-21.5 39.5z" />
<glyph unicode="&#xdd;" horiz-adv-x="1966" d="M25 -184q0 201 354 309q258 80 520 80q63 0 143 -12q113 -16 113 -48q0 -39 -66.5 -126t-103.5 -87q-35 0 -107.5 4.5t-107.5 4.5q-158 0 -369 -33q-301 -45 -301 -127q0 -86 250 -86q305 0 588 122t496 341q-154 57 -154 250q0 59 147 456q-422 -211 -479 -239 q-295 -135 -411 -136q-147 0 -148 146q0 137 250 362q231 207 537 369q319 168 499 168q139 0 140 -148q0 -90 -41 -231q262 141 440 242q10 6 18 6q35 0 35 -57q0 -43 -61 -74q-133 -70 -467 -242q-57 -147 -113 -295q-86 -231 -86 -301q0 -141 90 -141q49 0 461 409 q272 274 543 547q287 266 506 267q122 -1 122 -95q0 -92 -59 -92q-25 0 -25 23q0 8 5.5 24.5t5.5 26.5q0 43 -84 43q-68 0 -209 -90q-117 -74 -186 -139l-664 -672q-434 -432 -770 -645q-455 -287 -873 -287q-379 0 -378 203zM463 641q0 -82 92 -82q88 0 354 129 q49 23 557 285q97 270 97 327q0 74 -86 74q-117 0 -371 -151q-240 -141 -434 -314q-209 -184 -209 -268zM2300 1534l203 205q41 41 80 41q61 -1 61 -62q0 -39 -37 -59l-233 -125h-74z" />
<glyph unicode="&#xde;" horiz-adv-x="3516" d="M53 317q0 309 830 627q610 233 1183 332q100 129 213 274q31 39 60 39q20 0 20 -22q0 -16 -14 -38t-164 -235q313 45 572 45q309 0 493 -67q209 -78 209 -230q0 -285 -766 -589q-672 -266 -1358 -357q-172 -238 -235 -315q-33 -41 -88 -39q-78 4 -78 65q0 18 10 33 q18 25 184 236q-51 -2 -96 -2q-227 0 -227 129q14 16 39 16t32 -12q0 -61 154 -62q70 0 160 9l649 827q-489 -117 -985 -285q-735 -248 -735 -387q0 -33 -27 -33q-35 0 -35 41zM1395 182q633 106 1276 367q702 282 702 489q0 131 -348 131q-354 0 -1038 -153 q-348 -496 -592 -834z" />
<glyph unicode="&#xdf;" horiz-adv-x="454" d="M-551 -504q0 12 10 27l844 1204q90 129 129 172q109 123 195 123q116 0 116 -139q0 -152 -141 -281q-131 -96 -262 -194q-141 -111 -141 -222q0 -70 99 -177t99 -177q0 -92 -66.5 -148.5t-160.5 -56.5q-135 0 -195 72q-12 16 -12 27q0 18 19 18q8 0 40.5 -23.5 t69.5 -23.5q98 0 98 113q0 70 -28.5 181t-28.5 177q0 98 107 227q88 98 176 195q53 61 110 158q70 119 70 174q0 27 -23 26q-43 0 -153 -145q-82 -106 -131 -191l-635 -1104q-33 -57 -123 -57q-82 0 -82 45z" />
<glyph unicode="&#xe0;" d="M-74 125q0 51 33 104q53 86 170 147.5t229 61.5q109 0 109 -78q84 78 119 78q25 0 63.5 -25.5t36.5 -47.5q-2 -18 -47 -70l-70 -74q-74 -84 -73 -123q0 -23 26 -22q55 0 176 102q63 55 160 131q18 12 27 13q10 0 10 -13v-6q-6 -25 -49 -65q-131 -123 -193 -164 q-145 -98 -221 -99q-115 0 -115 123q0 27 2 41q-39 -53 -106 -96q-84 -53 -164 -53q-49 0 -86 39t-37 96zM160 168q0 -33 33 -33q66 0 149 103q43 53 90 90q4 25 -43 24q-84 0 -174 -86q-55 -53 -55 -98zM188 694q0 61 62 62q39 0 80 -41l202 -205h-73l-234 125 q-37 20 -37 59z" />
<glyph unicode="&#xe1;" d="M-74 125q0 51 33 104q53 86 170 147.5t229 61.5q109 0 109 -78q84 78 119 78q25 0 63.5 -25.5t36.5 -47.5q-2 -18 -47 -70l-70 -74q-74 -84 -73 -123q0 -23 26 -22q55 0 176 102q63 55 160 131q18 12 27 13q10 0 10 -13v-6q-6 -25 -49 -65q-131 -123 -193 -164 q-145 -98 -221 -99q-115 0 -115 123q0 27 2 41q-39 -53 -106 -96q-84 -53 -164 -53q-49 0 -86 39t-37 96zM160 168q0 -33 33 -33q66 0 149 103q43 53 90 90q4 25 -43 24q-84 0 -174 -86q-55 -53 -55 -98zM432 510l203 205q41 41 80 41q61 -1 61 -62q0 -39 -37 -59l-233 -125 h-74z" />
<glyph unicode="&#xe2;" d="M-74 125q0 51 33 104q53 86 170 147.5t229 61.5q109 0 109 -78q84 78 119 78q25 0 63.5 -25.5t36.5 -47.5q-2 -18 -47 -70l-70 -74q-74 -84 -73 -123q0 -23 26 -22q55 0 176 102q63 55 160 131q18 12 27 13q10 0 10 -13v-6q-6 -25 -49 -65q-131 -123 -193 -164 q-145 -98 -221 -99q-115 0 -115 123q0 27 2 41q-39 -53 -106 -96q-84 -53 -164 -53q-49 0 -86 39t-37 96zM160 168q0 -33 33 -33q66 0 149 103q43 53 90 90q4 25 -43 24q-84 0 -174 -86q-55 -53 -55 -98zM264 530l154 166q53 57 106 58q63 0 90 -58l76 -164l-47 -2 q-23 0 -34 4.5t-29 30.5l-66 92l-104 -92q-10 -10 -35 -26q-23 -8 -62 -9h-49z" />
<glyph unicode="&#xe3;" d="M-74 125q0 51 33 104q53 86 170 147.5t229 61.5q109 0 109 -78q84 78 119 78q25 0 63.5 -25.5t36.5 -47.5q-2 -18 -47 -70l-70 -74q-74 -84 -73 -123q0 -23 26 -22q55 0 176 102q63 55 160 131q18 12 27 13q10 0 10 -13v-6q-6 -25 -49 -65q-131 -123 -193 -164 q-145 -98 -221 -99q-115 0 -115 123q0 27 2 41q-39 -53 -106 -96q-84 -53 -164 -53q-49 0 -86 39t-37 96zM160 168q0 -33 33 -33q66 0 149 103q43 53 90 90q4 25 -43 24q-84 0 -174 -86q-55 -53 -55 -98zM322 553q0 8 24 41q74 104 158 104q37 0 87 -34.5t81 -34.5 q29 0 50 24.5t30 24.5q12 0 12 -8q0 -10 -14 -33q-45 -63 -60 -78q-37 -37 -88 -37q-29 0 -91 34t-85 34q-29 0 -56.5 -22.5t-33.5 -22.5q-14 0 -14 8z" />
<glyph unicode="&#xe4;" d="M-74 125q0 51 33 104q53 86 170 147.5t229 61.5q109 0 109 -78q84 78 119 78q25 0 63.5 -25.5t36.5 -47.5q-2 -18 -47 -70l-70 -74q-74 -84 -73 -123q0 -23 26 -22q55 0 176 102q63 55 160 131q18 12 27 13q10 0 10 -13v-6q-6 -25 -49 -65q-131 -123 -193 -164 q-145 -98 -221 -99q-115 0 -115 123q0 27 2 41q-39 -53 -106 -96q-84 -53 -164 -53q-49 0 -86 39t-37 96zM160 168q0 -33 33 -33q66 0 149 103q43 53 90 90q4 25 -43 24q-84 0 -174 -86q-55 -53 -55 -98zM324 582q0 25 31.5 61.5t60.5 42.5q20 4 47 -10t29 -37t-36 -69 t-63 -46q-27 0 -48 17.5t-21 40.5zM563 582q0 25 32 61.5t60 42.5q20 4 47 -10t29 -37t-36 -69t-62 -46q-27 0 -48.5 17.5t-21.5 40.5z" />
<glyph unicode="&#xe5;" d="M-74 125q0 51 33 104q53 86 170 147.5t229 61.5q109 0 109 -78q84 78 119 78q25 0 63.5 -25.5t36.5 -47.5q-2 -18 -47 -70l-70 -74q-74 -84 -73 -123q0 -23 26 -22q55 0 176 102q63 55 160 131q18 12 27 13q10 0 10 -13v-6q-6 -25 -49 -65q-131 -123 -193 -164 q-145 -98 -221 -99q-115 0 -115 123q0 27 2 41q-39 -53 -106 -96q-84 -53 -164 -53q-49 0 -86 39t-37 96zM160 168q0 -33 33 -33q66 0 149 103q43 53 90 90q4 25 -43 24q-84 0 -174 -86q-55 -53 -55 -98zM379 651q0 86 65.5 152.5t151.5 66.5q61 0 103 -40t42 -101 q0 -84 -68.5 -148.5t-152.5 -64.5q-61 0 -101 37t-40 98zM451 666q0 -80 84 -80q49 0 89 38t40 89q0 82 -84 82q-51 0 -90 -39t-39 -90z" />
<glyph unicode="&#xe6;" horiz-adv-x="974" d="M-74 125q0 51 33 104q53 86 170 147.5t229 61.5q106 0 109 -76q111 88 240 89q49 0 93 -27t44 -64q0 -59 -80 -135q-88 -82 -178 -82q-25 0 -35 2v-12q0 -68 70 -67q106 0 239 118q145 129 172 138h4q19 0 13 -29q-4 -18 -21 -31q-68 -61 -192 -170q-80 -61 -125 -82 q-76 -37 -168 -37q-86 0 -140 43q-59 45 -59 131q-135 -158 -295 -157q-49 0 -86 39t-37 96zM160 168q0 -33 33 -33q66 0 149 103q10 12 90 94q-2 20 -43 20q-84 0 -174 -86q-55 -53 -55 -98zM565 201h8q66 0 125 61q50 55 50 92q0 10 -13 11q-25 0 -63 -31q-14 -18 -88 -96 l-4 -9z" />
<glyph unicode="&#xe7;" horiz-adv-x="630" d="M-70 -344q0 63 66 63q18 0 34.5 -14t24.5 -14q39 0 75 40t36 76q0 27 -33 27t-74 -24q-14 -10 -28.5 -21.5t-24.5 -7.5q-14 6 2 26l107 170q-158 27 -158 173q0 115 123 208q117 92 239 93q57 0 103.5 -22.5t46.5 -53.5q0 -49 -37 -105.5t-76 -56.5q-78 0 -77 41 q0 14 53 65q29 27 28 35q0 10 -12 11q-29 0 -74 -37q-51 -41 -80.5 -96.5t-29.5 -98.5q0 -74 76 -74q135 0 277 127t169 136q8 2 14.5 -5.5t4.5 -17.5q0 -18 -23 -37q-68 -61 -193 -170q-156 -119 -313 -119l-33 -63q47 4 60 4q53 0 53 -39q0 -92 -135 -205 q-72 -59 -133 -59q-57 0 -58 45z" />
<glyph unicode="&#xe8;" horiz-adv-x="589" d="M-43 150q0 106 111.5 203.5t250.5 97.5q49 0 93.5 -27t44.5 -64q0 -59 -80 -135q-88 -82 -178 -82q-25 0 -35 2v-12q0 -68 69 -67q106 0 240 118q145 129 172 138h4q19 0 13 -29q-4 -18 -21 -31q-68 -61 -192 -170q-80 -61 -125 -82q-76 -37 -168 -37q-86 0 -140 43 q-59 47 -59 134zM92 702q0 61 62 62q39 0 79 -41l203 -205h-74l-233 125q-37 20 -37 59zM178 201h8q66 0 125 61q49 55 49 92q0 10 -12 11q-27 0 -76 -39t-79 -97z" />
<glyph unicode="&#xe9;" horiz-adv-x="587" d="M-43 150q0 106 111.5 203.5t250.5 97.5q49 0 93.5 -27t44.5 -64q0 -59 -80 -135q-88 -82 -178 -82q-25 0 -35 2v-12q0 -68 69 -67q106 0 240 118q145 129 172 138h4q19 0 13 -29q-4 -18 -21 -31q-68 -61 -192 -170q-80 -61 -125 -82q-76 -37 -168 -37q-86 0 -140 43 q-59 47 -59 134zM178 201h8q66 0 125 61q49 55 49 92q0 10 -12 11q-27 0 -76 -39t-79 -97zM297 510l203 205q41 41 80 41q61 -1 61 -62q0 -39 -37 -59l-233 -125h-74z" />
<glyph unicode="&#xea;" horiz-adv-x="589" d="M-43 150q0 106 111.5 203.5t250.5 97.5q49 0 93.5 -27t44.5 -64q0 -59 -80 -135q-88 -82 -178 -82q-25 0 -35 2v-12q0 -68 69 -67q106 0 240 118q145 129 172 138h4q19 0 13 -29q-4 -18 -21 -31q-68 -61 -192 -170q-80 -61 -125 -82q-76 -37 -168 -37q-86 0 -140 43 q-59 47 -59 134zM127 518l154 166q53 57 106 57q63 0 90 -57l76 -164l-47 -2q-23 0 -34 4t-30 31l-65 92l-105 -92q-10 -10 -34 -27q-23 -8 -62 -8h-49zM178 201h8q66 0 125 61q49 55 49 92q0 10 -12 11q-27 0 -76 -39t-79 -97z" />
<glyph unicode="&#xeb;" horiz-adv-x="589" d="M-43 150q0 106 111.5 203.5t250.5 97.5q49 0 93.5 -27t44.5 -64q0 -59 -80 -135q-88 -82 -178 -82q-25 0 -35 2v-12q0 -68 69 -67q106 0 240 118q145 129 172 138h4q19 0 13 -29q-4 -18 -21 -31q-68 -61 -192 -170q-80 -61 -125 -82q-76 -37 -168 -37q-86 0 -140 43 q-59 47 -59 134zM178 201h8q66 0 125 61q49 55 49 92q0 10 -12 11q-27 0 -76 -39t-79 -97zM188 575q0 25 32 62t61 43q20 4 46.5 -10t28.5 -37t-35.5 -69t-62.5 -46q-27 0 -48.5 17.5t-21.5 39.5zM428 575q0 25 32 62t60 43q20 4 47 -10t29 -37t-36 -69t-62 -46 q-27 0 -48.5 17.5t-21.5 39.5z" />
<glyph unicode="&#xec;" horiz-adv-x="444" d="M-84 63q0 84 92 207q121 160 164 170q27 6 68 6q84 0 110 -12q8 -4 8 -8q0 -8 -73 -84q-43 -43 -88 -86q-104 -117 -105 -162q0 -29 25 -28q74 0 207 112q57 49 161 133q16 12 27 11q10 -3 8 -17q-6 -31 -49 -67q-55 -49 -111 -99q-86 -74 -155 -110q-98 -51 -180 -52 q-109 0 -109 86zM61 713q0 61 62 61q39 0 80 -41l203 -205h-74l-234 125q-37 20 -37 60z" />
<glyph unicode="&#xed;" horiz-adv-x="444" d="M-84 63q0 84 92 207q121 160 164 170q27 6 68 6q84 0 110 -12q8 -4 8 -8q0 -8 -73 -84q-43 -43 -88 -86q-104 -117 -105 -162q0 -29 25 -28q74 0 207 112q57 49 161 133q16 12 27 11q10 -3 8 -17q-6 -31 -49 -67q-55 -49 -111 -99q-86 -74 -155 -110q-98 -51 -180 -52 q-109 0 -109 86zM258 522l203 205q41 41 80 41q61 0 61 -61q0 -39 -37 -60l-233 -125h-74z" />
<glyph unicode="&#xee;" horiz-adv-x="444" d="M-84 63q0 84 92 207q121 160 164 170q27 6 68 6q84 0 110 -12q8 -4 8 -8q0 -8 -73 -84q-43 -43 -88 -86q-104 -117 -105 -162q0 -29 25 -28q74 0 207 112q57 49 161 133q16 12 27 11q10 -3 8 -17q-6 -31 -49 -67q-55 -49 -111 -99q-86 -74 -155 -110q-98 -51 -180 -52 q-109 0 -109 86zM68 528l153 166q53 57 107 58q63 0 90 -58l76 -164l-48 -2q-23 0 -34 4.5t-29 30.5l-66 92l-104 -92q-10 -10 -35 -26q-23 -8 -61 -9h-49z" />
<glyph unicode="&#xef;" horiz-adv-x="444" d="M-84 63q0 84 92 207q121 160 164 170q27 6 68 6q84 0 110 -12q8 -4 8 -8q0 -8 -73 -84q-43 -43 -88 -86q-104 -117 -105 -162q0 -29 25 -28q74 0 207 112q57 49 161 133q16 12 27 11q10 -3 8 -17q-6 -31 -49 -67q-55 -49 -111 -99q-86 -74 -155 -110q-98 -51 -180 -52 q-109 0 -109 86zM141 586q0 25 32 61.5t60 42.5q20 4 47 -10t29 -37t-35.5 -69t-62.5 -46q-27 0 -48.5 17.5t-21.5 40.5zM381 586q0 25 31.5 61.5t60.5 42.5q20 4 47 -10t29 -37t-36 -69t-62 -46q-27 0 -48.5 17.5t-21.5 40.5z" />
<glyph unicode="&#xf0;" horiz-adv-x="618" d="M-55 119q0 133 121 233q111 92 237 92h14q61 86 62 230q0 74 -19 119l-94 -66l-41 49l111 76q-35 55 -68 66q-25 6 -49 12t-24 24q0 23 23.5 50.5t49.5 27.5q66 0 142 -129l100 70l41 -47l-111 -78q57 -125 58 -273q0 -141 -68 -174q-2 -2 -53 -20q-102 -39 -178 -143 q-37 -51 -37 -97q0 -43 35 -43q51 0 141 103q-18 23 -19 49q0 43 43.5 94t86.5 51t43 -51q0 -55 -46 -113q31 -12 56 -12h2q39 0 84 37q74 59 76 59q18 10 22 -2q8 -25 -24 -57q-102 -102 -201 -102q-33 0 -62 14q-43 -57 -114 -115q-104 -82 -197 -82q-59 0 -101 39 t-42 109zM397 266q27 21 43 60q8 16 -6 16q-12 0 -29.5 -28.5t-7.5 -47.5z" />
<glyph unicode="&#xf1;" horiz-adv-x="847" d="M-23 55q0 29 109 154q82 94 82 119q-20 0 -137 -82q-8 -4 -11 -4q-14 0 -18 16q-2 4 -2 10q0 12 12 25q33 31 119 82q102 61 145 61q27 0 55.5 -24.5t28.5 -46.5q0 -16 -30 -66q-6 -10 -6 -16q0 -8 6 -9q4 0 16 11q37 31 136.5 92t119.5 59q27 -2 55.5 -39t28.5 -67 q0 -18 -57 -84q-35 -39 -68 -76q-39 -47 -39 -70q0 -27 31 -26q45 0 170 104q57 49 162 133q16 12 26 11q11 -3 9 -17q-6 -31 -50 -67q-82 -70 -161 -142q-129 -98 -215 -98q-57 0 -94.5 37t-37.5 94q0 68 50 117q6 6 6 10t-4 4q-6 0 -31 -14q-125 -74 -297 -246 q-6 -6 -18 -6q-23 0 -57 20.5t-34 40.5zM336 539q0 8 24 41q74 104 158 104q37 0 87 -35t81 -35q29 0 50.5 25t29.5 25q12 -1 12 -9q0 -10 -14 -32q-45 -63 -59 -78q-37 -37 -89 -37q-29 0 -91 33.5t-85 33.5q-29 0 -56.5 -22.5t-33.5 -22.5q-14 0 -14 9z" />
<glyph unicode="&#xf2;" horiz-adv-x="638" d="M-55 119q0 139 129 237q119 90 256 90q41 0 74.5 -11t33.5 -21t-8 -13q-135 -31 -231 -163q-37 -51 -37 -97q0 -43 35 -43q51 0 141 103q-18 23 -19 49q0 29 19 61q47 82 113 82q39 0 38 -49q0 -68 -49 -121q12 -4 39 -4q49 0 109 35q49 31 96 63q19 12 23 -4 q8 -29 -25 -57q-113 -96 -219 -96q-47 0 -64 8q-43 -57 -114 -115q-104 -82 -197 -82q-59 0 -101 39t-42 109zM160 686q0 61 61 62q39 0 80 -41l203 -205h-74l-233 125q-37 20 -37 59z" />
<glyph unicode="&#xf3;" horiz-adv-x="638" d="M-55 119q0 139 129 237q119 90 256 90q41 0 74.5 -11t33.5 -21t-8 -13q-135 -31 -231 -163q-37 -51 -37 -97q0 -43 35 -43q51 0 141 103q-18 23 -19 49q0 29 19 61q47 82 113 82q39 0 38 -49q0 -68 -49 -121q12 -4 39 -4q49 0 109 35q49 31 96 63q19 12 23 -4 q8 -29 -25 -57q-113 -96 -219 -96q-47 0 -64 8q-43 -57 -114 -115q-104 -82 -197 -82q-59 0 -101 39t-42 109zM307 512l203 205q41 41 80 41q61 -1 61 -62q0 -39 -37 -59l-233 -125h-74z" />
<glyph unicode="&#xf4;" horiz-adv-x="638" d="M-55 119q0 139 129 237q119 90 256 90q41 0 74.5 -11t33.5 -21t-8 -13q-135 -31 -231 -163q-37 -51 -37 -97q0 -43 35 -43q51 0 141 103q-18 23 -19 49q0 29 19 61q47 82 113 82q39 0 38 -49q0 -68 -49 -121q12 -4 39 -4q49 0 109 35q49 31 96 63q19 12 23 -4 q8 -29 -25 -57q-113 -96 -219 -96q-47 0 -64 8q-43 -57 -114 -115q-104 -82 -197 -82q-59 0 -101 39t-42 109zM137 506l154 166q53 57 106 57q63 0 90 -57l76 -164l-47 -2q-23 0 -34 4t-29 31l-66 92l-104 -92q-10 -10 -35 -27q-23 -8 -62 -8h-49z" />
<glyph unicode="&#xf5;" horiz-adv-x="638" d="M-55 119q0 139 129 237q119 90 256 90q41 0 74.5 -11t33.5 -21t-8 -13q-135 -31 -231 -163q-37 -51 -37 -97q0 -43 35 -43q51 0 141 103q-18 23 -19 49q0 29 19 61q47 82 113 82q39 0 38 -49q0 -68 -49 -121q12 -4 39 -4q49 0 109 35q49 31 96 63q19 12 23 -4 q8 -29 -25 -57q-113 -96 -219 -96q-47 0 -64 8q-43 -57 -114 -115q-104 -82 -197 -82q-59 0 -101 39t-42 109zM190 522q0 8 25 41q74 104 158 105q37 0 87 -35t81 -35q29 0 50 24.5t30 24.5q12 0 12 -8q0 -10 -15 -33q-45 -63 -59 -78q-37 -37 -88 -36q-29 0 -91.5 33.5 t-84.5 33.5q-29 0 -56.5 -22.5t-33.5 -22.5q-14 0 -15 8z" />
<glyph unicode="&#xf6;" horiz-adv-x="638" d="M-55 119q0 139 129 237q119 90 256 90q41 0 74.5 -11t33.5 -21t-8 -13q-135 -31 -231 -163q-37 -51 -37 -97q0 -43 35 -43q51 0 141 103q-18 23 -19 49q0 29 19 61q47 82 113 82q39 0 38 -49q0 -68 -49 -121q12 -4 39 -4q49 0 109 35q49 31 96 63q19 12 23 -4 q8 -29 -25 -57q-113 -96 -219 -96q-47 0 -64 8q-43 -57 -114 -115q-104 -82 -197 -82q-59 0 -101 39t-42 109zM199 569q0 25 31.5 62t60.5 43q20 4 47 -10t29 -37t-36 -69t-63 -46q-27 0 -48 17.5t-21 39.5zM438 569q0 25 32 62t60 43q20 4 47 -10t29 -37t-36 -69t-62 -46 q-27 0 -48.5 17.5t-21.5 39.5z" />
<glyph unicode="&#xf8;" horiz-adv-x="600" d="M-82 -12q0 10 6 14l45 35q-12 33 -12 72q0 78 42 154.5t120 125.5t166 55t131 -24q16 -10 -58 -39q-59 -23 -124.5 -83t-83.5 -118l174 137q41 61 94 74l76 62q6 6 14 6q18 0 18 -21q0 -6 -4 -10l-61 -49q20 -23 4 -78q-14 -27 -37 -70q14 -6 55 -12q39 0 86 35 q37 31 76 61q19 10 23 -2q8 -25 -25 -57q-98 -98 -190 -102q-35 -2 -72 14q-43 -57 -115 -115q-109 -84 -192 -84q-27 0 -50.5 10.5t-31.5 20.5l-41 -31q-6 -4 -12 -4q-20 0 -21 23zM143 125q4 -12 12.5 -19.5t22.5 -7.5q47 1 141 103q-18 18 -18 49zM379 266q27 21 43 60 q8 16 -6 16l-31 -25q-2 -2 -2 -4q-14 -29 -4 -47z" />
<glyph unicode="&#xf9;" horiz-adv-x="796" d="M-80 66q0 92 78 200.5t166 157.5q25 14 86 16q59 4 84 -6q18 -6 10 -14q-59 -57 -141 -160q-106 -129 -107 -170q0 -14 15 -14q31 0 112 61q70 57 129 119q45 49 92 100q76 80 95.5 84t64.5 4q84 0 109 -10q16 -6 10 -14q-174 -190 -231 -287q-16 -29 -17 -43 q0 -14 14 -14q61 0 183 102q57 49 162 133q16 12 26 11q10 -3 8 -17q-6 -31 -49 -67q-55 -49 -110 -99q-86 -74 -156 -110q-82 -43 -168 -43t-86 75q0 35 16 80q-63 -63 -161 -114q-80 -41 -150 -41q-84 0 -84 80zM217 713q0 61 62 61q39 0 79 -41l203 -205h-74l-233 125 q-37 20 -37 60z" />
<glyph unicode="&#xfa;" horiz-adv-x="796" d="M-80 66q0 92 78 200.5t166 157.5q25 14 86 16q59 4 84 -6q18 -6 10 -14q-59 -57 -141 -160q-106 -129 -107 -170q0 -14 15 -14q31 0 112 61q70 57 129 119q45 49 92 100q76 80 95.5 84t64.5 4q84 0 109 -10q16 -6 10 -14q-174 -190 -231 -287q-16 -29 -17 -43 q0 -14 14 -14q61 0 183 102q57 49 162 133q16 12 26 11q10 -3 8 -17q-6 -31 -49 -67q-55 -49 -110 -99q-86 -74 -156 -110q-82 -43 -168 -43t-86 75q0 35 16 80q-63 -63 -161 -114q-80 -41 -150 -41q-84 0 -84 80zM408 516l202 205q41 41 80 41q62 -1 62 -62q0 -39 -37 -59 l-234 -125h-73z" />
<glyph unicode="&#xfb;" horiz-adv-x="796" d="M-80 66q0 92 78 200.5t166 157.5q25 14 86 16q59 4 84 -6q18 -6 10 -14q-59 -57 -141 -160q-106 -129 -107 -170q0 -14 15 -14q31 0 112 61q70 57 129 119q45 49 92 100q76 80 95.5 84t64.5 4q84 0 109 -10q16 -6 10 -14q-174 -190 -231 -287q-16 -29 -17 -43 q0 -14 14 -14q61 0 183 102q57 49 162 133q16 12 26 11q10 -3 8 -17q-6 -31 -49 -67q-55 -49 -110 -99q-86 -74 -156 -110q-82 -43 -168 -43t-86 75q0 35 16 80q-63 -63 -161 -114q-80 -41 -150 -41q-84 0 -84 80zM244 549l153 166q53 57 107 57q63 0 90 -57l76 -164l-47 -2 q-23 0 -34 4t-30 31l-65 92l-105 -92q-10 -10 -35 -27q-23 -8 -61 -8h-49z" />
<glyph unicode="&#xfc;" horiz-adv-x="796" d="M-80 66q0 92 78 200.5t166 157.5q25 14 86 16q59 4 84 -6q18 -6 10 -14q-59 -57 -141 -160q-106 -129 -107 -170q0 -14 15 -14q31 0 112 61q70 57 129 119q45 49 92 100q76 80 95.5 84t64.5 4q84 0 109 -10q16 -6 10 -14q-174 -190 -231 -287q-16 -29 -17 -43 q0 -14 14 -14q61 0 183 102q57 49 162 133q16 12 26 11q10 -3 8 -17q-6 -31 -49 -67q-55 -49 -110 -99q-86 -74 -156 -110q-82 -43 -168 -43t-86 75q0 35 16 80q-63 -63 -161 -114q-80 -41 -150 -41q-84 0 -84 80zM272 580q0 25 32 61.5t61 42.5q20 4 46.5 -10t28.5 -37 t-35.5 -69t-62.5 -46q-27 0 -48.5 17.5t-21.5 40.5zM512 580q0 25 31.5 61.5t60.5 42.5q20 4 47 -10t29 -37t-36 -69t-62 -46q-27 0 -48.5 17.5t-21.5 40.5z" />
<glyph unicode="&#xfd;" horiz-adv-x="835" d="M-410 -496q0 106 240 269q215 145 373 190q66 86 192 256q-84 -74 -184 -139q-135 -86 -205 -86q-84 0 -84 90q0 76 74 178q68 96 135.5 139t155.5 43q45 0 45 -32q0 -18 -99.5 -135t-99.5 -142q0 -10 10 -10q33 0 123 59q72 47 113 84q61 66 182 174q18 12 33 13 q25 0 47 -54q18 -45 18 -69q0 -31 -188 -285q78 14 248 146q164 127 172 126q14 -6 14 -14q0 -33 -117 -127q-82 -66 -151 -110q-102 -68 -186 -86q-10 -2 -33 -9q-47 -63 -144.5 -190t-240.5 -242q-182 -147 -301 -147q-47 0 -94.5 31.5t-47.5 78.5zM-295 -475 q0 -41 39 -41q86 0 395 385q-131 -57 -254 -139q-180 -121 -180 -205zM428 545l203 205q41 41 80 41q61 -1 61 -62q0 -39 -37 -59l-233 -125h-74z" />
<glyph unicode="&#xfe;" horiz-adv-x="716" d="M-592 -487q0 109 528.5 704.5t653.5 636.5q18 6 67 6q72 0 78 -24q0 -2 -188.5 -185.5t-239.5 -230.5q59 27 123 26q49 0 83 -28.5t34 -77.5q0 -125 -152 -252q14 -12 21 -12q55 0 176 102q63 55 160 131q18 12 26 13q10 0 10 -13v-6q-6 -25 -49 -65q-135 -127 -192 -164 q-139 -90 -223 -90q-31 0 -50 26q-78 -37 -141 -37q-143 0 -143 123q-295 -319 -500 -665l-10 -2q-20 0 -46 30.5t-26 53.5zM66 84q0 -16 20 -16q51 0 178 117.5t127 170.5q0 31 -31 31q-39 0 -166.5 -130t-127.5 -173z" />
<glyph unicode="&#xff;" horiz-adv-x="835" d="M-410 -496q0 106 240 269q215 145 373 190q66 86 192 256q-84 -74 -184 -139q-135 -86 -205 -86q-84 0 -84 90q0 76 74 178q68 96 135.5 139t155.5 43q45 0 45 -32q0 -18 -99.5 -135t-99.5 -142q0 -10 10 -10q33 0 123 59q72 47 113 84q61 66 182 174q18 12 33 13 q25 0 47 -54q18 -45 18 -69q0 -31 -188 -285q78 14 248 146q164 127 172 126q14 -6 14 -14q0 -33 -117 -127q-82 -66 -151 -110q-102 -68 -186 -86q-10 -2 -33 -9q-47 -63 -144.5 -190t-240.5 -242q-182 -147 -301 -147q-47 0 -94.5 31.5t-47.5 78.5zM-295 -475 q0 -41 39 -41q86 0 395 385q-131 -57 -254 -139q-180 -121 -180 -205zM283 594q0 25 31.5 61.5t60.5 42.5q20 4 47 -10t29 -37t-36 -68.5t-63 -45.5q-27 0 -48 17t-21 40zM522 594q0 25 32 61.5t60 42.5q20 4 47 -10t29 -37t-36 -68.5t-62 -45.5q-27 0 -48.5 17t-21.5 40z " />
<glyph unicode="&#x152;" horiz-adv-x="2877" d="M53 293q0 262 228 551q211 268 527 453.5t574 185.5h11q57 0 57 -37q0 -35 -33 -35h-43q-211 0 -498.5 -168t-486.5 -399q-217 -256 -217 -471q0 -305 434 -305q344 0 815 294q465 291 647 611q-23 47 -32 92q-147 -39 -305 -80q-20 -4 -29 -4q-16 0 -30.5 25.5 t-14.5 37.5q0 14 24 23q131 33 344 88v21q0 104 74 190q-20 27 -74.5 49.5t-105.5 22.5q-197 0 -569 -267q-141 -100 -443 -364q-283 -248 -348 -320q-37 -41 -110 -41q-55 0 -103 23q-59 27 -59 74q0 53 358 315q266 197 506 350q463 299 721 299q178 0 272 -96 q117 94 279 94q139 0 536 -92l183 51q174 49 270 49q92 0 153.5 -39.5t61.5 -105.5q0 -74 -101.5 -197.5t-170.5 -123.5q-129 0 -326 71q-45 16 -342 142l-590 -175q47 -199 221 -348q139 20 262 21q80 0 128.5 -32t48.5 -77q0 -96 -158 -96q-145 0 -283 102 q-266 -66 -454 -198q-215 -150 -215 -314q0 -115 116 -184q98 -59 222 -59q274 0 458 92q162 82 162 170q12 18 33 18q29 0 41 -33q0 -129 -207 -241q-217 -119 -496 -119q-227 0 -387 88q-170 94 -192 254q-463 -272 -819 -272q-244 0 -381 110q-143 115 -144 326z M2032 674q100 29 206 49q-55 55 -100 123q-41 -84 -106 -172zM2079 1171q225 62 489 136q-174 61 -268 61q-100 0 -160.5 -57.5t-60.5 -139.5zM2402 676q102 -61 209 -62q66 0 66 39q0 41 -84 41q-86 0 -191 -18zM3099 1382q211 -43 325 -43q35 0 72 17.5t37 44.5 q0 51 -121 51q-88 0 -168 -25q-29 -8 -145 -45z" />
<glyph unicode="&#x153;" horiz-adv-x="948" d="M-55 119q0 139 129 237q119 90 256 90q41 0 74.5 -11t33.5 -21t-8 -13q-135 -31 -231 -163q-37 -51 -37 -97q0 -43 35 -43q43 0 125 84q2 14 8 31q-10 16 -11 37q0 29 19 61q47 82 113 82q14 0 22 -6q98 63 207 64q49 0 93 -27t44 -64q0 -59 -80 -135q-88 -82 -178 -82 q-25 0 -35 2v-12q0 -68 70 -67q106 0 240 118q145 129 172 138h4q18 0 12 -29q-4 -18 -21 -31q-68 -61 -192 -170q-80 -61 -125 -82q-76 -37 -168 -37q-154 0 -190 117q-23 -23 -41 -37q-104 -82 -197 -82q-59 0 -101 39t-42 109zM539 201h8q66 0 125 61q49 55 49 92 q0 10 -12 11q-27 0 -76 -39t-80 -97z" />
<glyph unicode="&#x178;" horiz-adv-x="1966" d="M25 -184q0 201 354 309q258 80 520 80q63 0 143 -12q113 -16 113 -48q0 -39 -66.5 -126t-103.5 -87q-35 0 -107.5 4.5t-107.5 4.5q-158 0 -369 -33q-301 -45 -301 -127q0 -86 250 -86q305 0 588 122t496 341q-154 57 -154 250q0 59 147 456q-422 -211 -479 -239 q-295 -135 -411 -136q-147 0 -148 146q0 137 250 362q231 207 537 369q319 168 499 168q139 0 140 -148q0 -90 -41 -231q262 141 440 242q10 6 18 6q35 0 35 -57q0 -43 -61 -74q-133 -70 -467 -242q-57 -147 -113 -295q-86 -231 -86 -301q0 -141 90 -141q49 0 461 409 q272 274 543 547q287 266 506 267q122 -1 122 -95q0 -92 -59 -92q-25 0 -25 23q0 8 5.5 24.5t5.5 26.5q0 43 -84 43q-68 0 -209 -90q-117 -74 -186 -139l-664 -672q-434 -432 -770 -645q-455 -287 -873 -287q-379 0 -378 203zM463 641q0 -82 92 -82q88 0 354 129 q49 23 557 285q97 270 97 327q0 74 -86 74q-117 0 -371 -151q-240 -141 -434 -314q-209 -184 -209 -268zM2263 1620q0 25 32 61.5t60 42.5q20 4 47 -10t29 -37t-36 -68.5t-62 -45.5q-27 0 -48.5 17t-21.5 40zM2503 1620q0 25 31.5 61.5t60.5 42.5q20 4 47 -10t29 -37 t-36 -68.5t-63 -45.5q-27 0 -48 17t-21 40z" />
<glyph unicode="&#x2c6;" horiz-adv-x="657" d="M100 1352l154 166q53 57 106 57q63 0 91 -57l75 -164l-47 -2q-23 0 -34 4t-29 30l-66 93l-104 -93q-10 -10 -35 -26q-23 -8 -61 -8h-50z" />
<glyph unicode="&#x2dc;" horiz-adv-x="657" d="M92 1446q0 8 25 41q74 102 157 102q37 0 88.5 -33.5t79.5 -33.5q29 0 50.5 24.5t29.5 24.5q13 0 13 -10q0 -8 -15 -31q-45 -66 -59 -78q-37 -37 -88 -37q-29 0 -91.5 34t-84.5 34q-29 0 -56.5 -22.5t-34.5 -22.5q-14 0 -14 8z" />
<glyph unicode="&#x2000;" horiz-adv-x="969" />
<glyph unicode="&#x2001;" horiz-adv-x="1939" />
<glyph unicode="&#x2002;" horiz-adv-x="969" />
<glyph unicode="&#x2003;" horiz-adv-x="1939" />
<glyph unicode="&#x2004;" horiz-adv-x="646" />
<glyph unicode="&#x2005;" horiz-adv-x="484" />
<glyph unicode="&#x2006;" horiz-adv-x="323" />
<glyph unicode="&#x2007;" horiz-adv-x="323" />
<glyph unicode="&#x2008;" horiz-adv-x="242" />
<glyph unicode="&#x2009;" horiz-adv-x="387" />
<glyph unicode="&#x200a;" horiz-adv-x="107" />
<glyph unicode="&#x2010;" horiz-adv-x="727" d="M162 281l12 32q10 31 41 31h385q31 0 21 -31l-13 -32q-10 -31 -41 -31h-385q-31 0 -20 31z" />
<glyph unicode="&#x2011;" horiz-adv-x="727" d="M162 281l12 32q10 31 41 31h385q31 0 21 -31l-13 -32q-10 -31 -41 -31h-385q-31 0 -20 31z" />
<glyph unicode="&#x2012;" horiz-adv-x="727" d="M162 281l12 32q10 31 41 31h385q31 0 21 -31l-13 -32q-10 -31 -41 -31h-385q-31 0 -20 31z" />
<glyph unicode="&#x2013;" horiz-adv-x="983" d="M162 281l12 32q10 31 41 31h643q31 0 19 -31l-13 -32q-10 -31 -41 -31h-641q-31 0 -20 31z" />
<glyph unicode="&#x2014;" horiz-adv-x="1404" d="M162 281l12 32q10 31 41 31h1065q30 0 18 -31l-12 -32q-10 -31 -41 -31h-1063q-31 0 -20 31z" />
<glyph unicode="&#x2018;" horiz-adv-x="395" d="M152 909q0 59 83.5 157.5t137.5 98.5q19 0 37 -10q-35 -12 -76 -57t-41 -74q37 0 37 -51q0 -27 -34 -66t-65 -47q-23 -4 -51 11.5t-28 37.5z" />
<glyph unicode="&#x2019;" horiz-adv-x="477" d="M508 897q35 12 76 57t41 74q-37 0 -37 51q0 27 33.5 66t64.5 47q23 4 51.5 -11t28.5 -38q0 -59 -84 -157.5t-137 -98.5q-18 0 -37 10z" />
<glyph unicode="&#x201a;" horiz-adv-x="415" d="M10 -139q35 12 76 57t41 74q-37 0 -37 51q0 27 34 65.5t64 47.5q23 4 51.5 -11.5t28.5 -38.5q0 -59 -84 -157.5t-137 -98.5q-18 0 -37 11z" />
<glyph unicode="&#x201c;" horiz-adv-x="581" d="M133 909q0 59 84 157.5t137 98.5q19 0 37 -10q-35 -12 -76 -57t-41 -74q37 0 37 -51q0 -27 -33.5 -66t-64.5 -47q-23 -4 -51.5 11.5t-28.5 37.5zM338 909q0 59 84 157.5t137 98.5q19 0 37 -10q-35 -12 -76 -57t-41 -74q37 0 37 -51q0 -27 -33.5 -66t-64.5 -47 q-23 -4 -51.5 11.5t-28.5 37.5z" />
<glyph unicode="&#x201d;" horiz-adv-x="880" d="M508 897q35 12 76 57t41 74q-37 0 -37 51q0 27 33.5 66t64.5 47q23 4 51.5 -11t28.5 -38q0 -59 -84 -157.5t-137 -98.5q-18 0 -37 10zM713 897q35 12 75.5 57t40.5 74q-37 0 -36 51q0 27 33.5 66t64.5 47q23 4 51.5 -11t28.5 -38q0 -59 -83 -157.5t-138 -98.5 q-18 0 -37 10z" />
<glyph unicode="&#x201e;" horiz-adv-x="581" d="M10 -139q35 12 76 57t41 74q-37 0 -37 51q0 27 34 65.5t64 47.5q23 4 51.5 -11.5t28.5 -38.5q0 -59 -84 -157.5t-137 -98.5q-18 0 -37 11zM215 -139q35 12 76 57t41 74q-37 0 -37 51q0 27 33.5 65.5t64.5 47.5q23 4 51.5 -11.5t28.5 -38.5q0 -59 -84 -157.5t-137 -98.5 q-18 0 -37 11z" />
<glyph unicode="&#x2022;" horiz-adv-x="968" d="M244 670q0 100 70.5 170.5t170.5 70.5q98 0 170 -70.5t72 -170.5t-71.5 -171t-170.5 -71q-100 0 -170.5 70.5t-70.5 171.5z" />
<glyph unicode="&#x2026;" horiz-adv-x="1019" d="M90 43q0 27 34 65.5t64 47.5q23 4 50.5 -11.5t29.5 -38.5q2 -29 -34.5 -75.5t-69.5 -46.5q-29 0 -51.5 18t-22.5 41zM375 43q0 27 33.5 65.5t64.5 47.5q23 4 50.5 -11.5t29.5 -38.5q2 -29 -35 -75.5t-69 -46.5q-27 0 -50.5 18t-23.5 41zM651 43q0 27 34 65.5t65 47.5 q23 4 50 -11.5t29 -38.5q2 -29 -34.5 -75.5t-69.5 -46.5q-27 0 -50.5 18t-23.5 41z" />
<glyph unicode="&#x202f;" horiz-adv-x="387" />
<glyph unicode="&#x2039;" horiz-adv-x="552" d="M193 514q-8 12 4 21l254 137q10 6 18 -2q8 -11 -2 -19l-160 -162l68 -223q4 -14 -6 -18q-12 -2 -19 8z" />
<glyph unicode="&#x203a;" horiz-adv-x="763" d="M362 268q-8 10 3 19l159 162l-67 223q-4 14 8 18q10 2 18 -8l156 -258q8 -12 -4 -21l-252 -137q-12 -6 -21 2z" />
<glyph unicode="&#x205f;" horiz-adv-x="484" />
<glyph unicode="&#x2122;" horiz-adv-x="1255" d="M350 1325v143h479l5 -143h-46q-16 59 -22 70q-16 25 -59 24h-64v-354q0 -29 12 -35q6 -2 21 -2h45v-49h-256v49h49q31 0 31 37v354h-68q-43 0 -59 -26q-6 -8 -23 -68h-45zM874 979v49q72 0 72 74v280q0 37 -33 37h-34v49h157l158 -354l154 354h165v-49h-45q-31 0 -30 -37 v-317q0 -29 12 -35q6 -2 20 -2h43v-49h-245v49h41q31 0 30 37v262l-151 -348h-37l-156 348v-225q0 -74 76 -74v-49h-197z" />
<glyph unicode="&#x25fc;" horiz-adv-x="440" d="M0 0v440h440v-440h-440z" />
</font>
</defs>
</svg>
